<svg xmlns="http://www.w3.org/2000/svg" viewBox="0 0 665.99 937.43"><defs><style>.cls-1{fill:#f7941d;}</style></defs><g id="Layer_2" data-name="Layer 2"><g id="Layer_1-2" data-name="Layer 1"><path class="cls-1" d="M215.61,838.87q-16.91,0-34.67-1.41A246.48,246.48,0,0,1,148.81,833l45.1-188.84a270.75,270.75,0,0,1,33.68-4.23q17.61-1.11,32.27-1.12,16.9,0,29.17,3.52t20,9.44a38,38,0,0,1,11.56,13.95,39.45,39.45,0,0,1,3.8,17.05,70,70,0,0,1-1.27,13,42.41,42.41,0,0,1-5.07,13.39,51.45,51.45,0,0,1-10.43,12.54,67,67,0,0,1-17.33,10.71Q303,738,308.9,747.69a40.71,40.71,0,0,1,5.92,21.56,65.73,65.73,0,0,1-5.36,26.07,58.63,58.63,0,0,1-17.19,22.27q-11.83,9.72-30.72,15.5T215.61,838.87Zm-4-87.94-12.12,50.73A93.74,93.74,0,0,0,211,802.93q6.9.42,12.82.42a111.71,111.71,0,0,0,16.77-1.26,48.88,48.88,0,0,0,14.94-4.66,29.71,29.71,0,0,0,10.85-9.3q4.23-5.91,4.23-15.22A21.59,21.59,0,0,0,269,765a19,19,0,0,0-4.93-7,26.07,26.07,0,0,0-8.88-5.08,39,39,0,0,0-13.11-2Zm8.18-33h27.62q16.91,0,25.22-7.32T281,693.15a16.91,16.91,0,0,0-2.4-9.16,18,18,0,0,0-6.34-6.06,29.49,29.49,0,0,0-9-3.24,55.14,55.14,0,0,0-10.43-1q-5.91,0-12.68.42t-10.15,1Z"/><path class="cls-1" d="M508.72,641l-9,36.92H442.49l-38.05,158.4h-44l38-158.4H341.31l9-36.92Z"/><path class="cls-1" d="M632.45,827.87a124.19,124.19,0,0,1-25.65,9q-14.09,3.39-34.38,3.38a85.81,85.81,0,0,1-32-5.77A69.53,69.53,0,0,1,515.63,818a73.76,73.76,0,0,1-15.93-26.07q-5.64-15.36-5.63-34.53a129,129,0,0,1,7.75-43.68,116.52,116.52,0,0,1,59.75-66.52q21.84-10.71,50.31-10.71a115.66,115.66,0,0,1,26.63,3.1,110.79,110.79,0,0,1,27.48,11L650.21,684.7a95.44,95.44,0,0,0-21.14-8.46,84.93,84.93,0,0,0-20-2.25,63.16,63.16,0,0,0-28.89,6.48,67.66,67.66,0,0,0-22,17.61,78.61,78.61,0,0,0-14,25.79,99.06,99.06,0,0,0-4.8,31q0,24.79,10.86,36.07t31.14,11.28a103.87,103.87,0,0,0,24.94-2.82,120.5,120.5,0,0,0,21.28-7.33Z"/><path class="cls-1" d="M144.22,250.22a1.78,1.78,0,0,0-.08-2.52C105.31,210.6,67.18,172,37,127.48c-8.6-13.25-27.41-43.15-20-58.48,3.88-6.65,12.71-7.56,20.12-7.68,25.15,1.1,54.62,10.3,89.9,26.29a128.86,128.86,0,0,1,13.84-14.9c-43.72-18.5-104.72-39.18-130-18.34-23.26,20.62,3,60,17,79.49C44,156,62.5,176,81.78,195.36c19.27,19.17,39.39,37.39,60,55A1.8,1.8,0,0,0,144.22,250.22Z"/><path class="cls-1" d="M265.08,317.05c-1.38,3.41-4.85,8.52-12.69,6.58.27.4-19.5-4.86-19.5-4.86L218.52,350.3l36,9c6.7,1.68,13.27,3.44,19.74,5.09l-11.46,46,27.66,6.9,11.35-45.52c7.55,2.05,14.89,3.94,22.06,5.73l-11.31,45.3,27.69,6.91,11.46-45.93c47.22,8.94,82.72,5.33,97.67-37.37,12-34.39-.6-54.22-25.44-67.16,18.09-4.17,31.72-16.07,35.35-40.65,5-33.58-20.54-51.63-55.5-63.68l11.34-45.49-27.69-6.9-11,44.29c-7.28-1.81-14.76-3.52-22.19-5.22L365.36,117l-27.67-6.9-11.35,45.47c-6-1.37-11.94-2.72-17.68-4.15l0-.14-38.19-9.54-7.36,29.58s20.54,4.7,20.11,5c11.21,2.79,13.24,10.22,12.9,16.1l-12.92,51.82a23.57,23.57,0,0,1,2.88.92c-.92-.22-1.91-.48-2.93-.72Zm81.7-122.74c15.63,3.89,66,11.17,57.84,43.79-7.81,31.28-56,15.39-71.62,11.49ZM326,277.5c18.77,4.68,79,13.95,70,49.81-8.56,34.39-66.46,15.8-85.23,11.14Z"/><path class="cls-1" d="M409.74,526.41C279,558.52,148.68,481.49,109.91,353.22a266.44,266.44,0,0,0,14.77,40.24A255.4,255.4,0,0,0,422.54,533.1c22-5.9,36.26-10.81,55.72-22.06-5.42-2.27-7.46-3.2-13-5.89C445.25,516.71,432.32,520.84,409.74,526.41Z"/><path class="cls-1" d="M630.14,432.65c-8.81-10.8-14.22-18.5-23.5-28.67-4.14,8.47-8.87,17.25-14.19,25.95,6.9,8.17,9.48,11.63,15.88,20.21,7.32,10,14.37,20.56,19.88,31.57,3.39,6.88,6.79,14.73,7.11,22.31a6.83,6.83,0,0,1-.53,3.27.19.19,0,0,0-.07.11c0,.06-.06,0-.07.07s-.07.07-.1.12-.25.17-.59.37a8.15,8.15,0,0,1-1.58.69,30.36,30.36,0,0,1-9.67,1.21c-8.67-.11-17.11-1.76-25.77-3.91-18.29-4.68-35.87-11.5-53.31-19.05-5-2.16-9.88-4.4-14.77-6.68,30.44-22.37,52.92-59.48,67-90.37C644.84,284,620.31,156.3,534.23,75.41a274.75,274.75,0,0,0-126.34-68c-102-24.57-209.28,13-275.14,92.11a36,36,0,1,0,28.48,19.78A245.14,245.14,0,0,1,283.59,38.19c51.58-15.16,108.46-12,158.76,7.68A251.44,251.44,0,0,1,518,92.76c83.19,74.51,107.15,195.32,61.29,295.48a250,250,0,0,1-52,74.56A88.27,88.27,0,0,1,513.81,473c-19-9.35-37.56-19.46-55.91-30a34.86,34.86,0,1,0-15.75,33.34c16.72,8.93,33.68,17.5,51,25.56,30.74,14.14,62.13,27.34,95.54,35,22.14,4.65,55.48,9.64,70.65-14C676.58,494.38,646.42,454.12,630.14,432.65Z"/><path class="cls-1" d="M137.24,747.51h-.16l13.14-51.82q-27.61-11-53.83-11a107.79,107.79,0,0,0-37.77,6.48A91.42,91.42,0,0,0,28,709.78,85.63,85.63,0,0,0,7.47,739.37Q0,756.86,0,778.83A78.94,78.94,0,0,0,3.81,804.2a56.77,56.77,0,0,0,10.42,19A44.21,44.21,0,0,0,30,835.06a48.23,48.23,0,0,0,19.87,4.09,63.56,63.56,0,0,0,25.18-5.28L63.84,880.1a85.15,85.15,0,0,0-2.41,19q0,19.56,12.05,28.93T108,937.43a85.2,85.2,0,0,0,16.2-1.61l8.28-34.66-2.25.51a52.55,52.55,0,0,1-11,1.2,22.58,22.58,0,0,1-10.72-2.41q-4.54-2.4-4.55-9.37a63.55,63.55,0,0,1,2.41-15ZM72.29,802.65a37.05,37.05,0,0,1-10.57,1.55q-9.3,0-14.65-6.2t-5.36-22.27A71.38,71.38,0,0,1,45,754.17a53.56,53.56,0,0,1,9.59-18A46.45,46.45,0,0,1,69.9,723.87a45.43,45.43,0,0,1,20.57-4.51c2.07,0,4.13.1,6.2.29a58.17,58.17,0,0,1,5.92.84l-6.55,27L84,797.16A51,51,0,0,1,72.29,802.65Z"/></g></g></svg>