<svg xmlns="http://www.w3.org/2000/svg" viewBox="0 0 1111.23 888.54"><defs><style>.cls-1{fill:#f7941d;}</style></defs><g id="Layer_2" data-name="Layer 2"><g id="Layer_1-2" data-name="Layer 1"><path class="cls-1" d="M131.77,697.63q-21.38-.81-35.72-4.33T72.92,684a33.67,33.67,0,0,1-12.58-14.21,45.43,45.43,0,0,1-3.79-18.94v-1.89q-26-5.41-41.26-25.16T0,572.09a126,126,0,0,1,7.31-41.94,122.37,122.37,0,0,1,21-37.48,107.68,107.68,0,0,1,33.42-27.05q19.75-10.41,44.64-10.42a82.48,82.48,0,0,1,30.31,5.41,67.91,67.91,0,0,1,23.81,15.56A70.25,70.25,0,0,1,176,500.93q5.53,14.61,5.54,33a128.9,128.9,0,0,1-5.68,37.47A122.71,122.71,0,0,1,159.23,606a111,111,0,0,1-26.78,27.2,92.31,92.31,0,0,1-36.13,15.42v.81a12.08,12.08,0,0,0,3.93,9.47,26.43,26.43,0,0,0,10.55,5.41,84.82,84.82,0,0,0,15.29,2.71q8.66.81,18.13,1.35ZM102,491.46A43.77,43.77,0,0,0,78.87,498,65.14,65.14,0,0,0,60.2,515.27a84.54,84.54,0,0,0-12.44,24.89,95,95,0,0,0-4.47,29q0,20.29,8.52,32.88t27.74,12.58a43.77,43.77,0,0,0,23.13-6.5,65.25,65.25,0,0,0,18.67-17.31A85.29,85.29,0,0,0,133.8,566a94.92,94.92,0,0,0,4.46-29.09q0-20.29-8.52-32.87T102,491.46Z"/><path class="cls-1" d="M333.89,504.72l-19.22,80.9a90,90,0,0,0-2.16,31,110.82,110.82,0,0,0,6.22,27.73l-36,5.14a130,130,0,0,1-5.68-13.26,75.71,75.71,0,0,1-17.05,10,53,53,0,0,1-21.11,4.06q-16,0-25.83-5.81A37.26,37.26,0,0,1,198.33,629a51.85,51.85,0,0,1-5.28-22,92.35,92.35,0,0,1,2.84-25.43l18.4-76.84h40.32L236.48,581q-1.36,6-2.3,12.17a38.09,38.09,0,0,0-.14,11.5,15.13,15.13,0,0,0,4.2,8.66q3.38,3.39,10.69,3.38a28.39,28.39,0,0,0,11.5-2.3,40.08,40.08,0,0,0,11.22-8q.54-6.76,1.76-14.2T276,578.58l17.59-73.86Z"/><path class="cls-1" d="M467.28,585.62a89.79,89.79,0,0,0-2.17,31,111.25,111.25,0,0,0,6.23,27.73l-36,5.14c-1.08-2.16-2.08-4.23-3-6.22s-1.8-4.24-2.7-6.77a72.06,72.06,0,0,1-16.78,10.29,50.47,50.47,0,0,1-20.56,4.05q-13.53,0-23.13-4.73a43.47,43.47,0,0,1-15.7-12.72,50.91,50.91,0,0,1-8.79-18.67A92.53,92.53,0,0,1,342,591.84a93.51,93.51,0,0,1,6.63-35.18A89.49,89.49,0,0,1,367,527.85a86,86,0,0,1,27.73-19.35,84.93,84.93,0,0,1,34.64-7q2.43,0,8.52.27T451.86,503a135,135,0,0,1,16.5,3.11A86.08,86.08,0,0,1,484.87,512Zm-28.14-49.79q-3.52-.54-6.36-.81t-6.9-.27a33.8,33.8,0,0,0-17.18,4.6,49.33,49.33,0,0,0-13.94,12,57.23,57.23,0,0,0-9.33,17.18,61.28,61.28,0,0,0-3.38,20.29q0,13,4.33,20.57t16,7.57a25.39,25.39,0,0,0,11.23-2.43,41.57,41.57,0,0,0,10.69-8.12q.54-6.76,1.76-14.2t2.57-13.67Z"/><path class="cls-1" d="M520.31,511.21q4.59-1.35,10.15-3.11t12.44-3.25q6.9-1.49,15.42-2.44a179.91,179.91,0,0,1,19.35-.94q31.92,0,43.83,18.4t4.06,50.32L607.16,647H566.85l17.86-75.22q1.62-7,2.57-13.67a33.19,33.19,0,0,0-.14-11.63,13.78,13.78,0,0,0-5-8.12q-3.93-3.1-12-3.11a81.39,81.39,0,0,0-16,1.62L527.89,647H487.57Z"/><path class="cls-1" d="M674.26,469.27l41.94-6.49-10.28,41.94h44.91l-8.11,33H698.07l-11.9,49.78a65.15,65.15,0,0,0-2,11.63,19.13,19.13,0,0,0,1.35,9.34,12.43,12.43,0,0,0,6.09,6.09q4.32,2.16,11.9,2.16a63.47,63.47,0,0,0,12.59-1.22,92.46,92.46,0,0,0,12.31-3.38l3,30.85a145.09,145.09,0,0,1-17.58,5.14,102.16,102.16,0,0,1-22.46,2.16q-18.67,0-28.95-5.54t-14.61-15.16A47.78,47.78,0,0,1,644,607.53a141.19,141.19,0,0,1,3.79-26.24Z"/><path class="cls-1" d="M891.8,504.72l-19.21,80.9a89.79,89.79,0,0,0-2.17,31,111.26,111.26,0,0,0,6.22,27.73l-36,5.14A130,130,0,0,1,835,636.21a75.49,75.49,0,0,1-17.05,10,53,53,0,0,1-21.1,4.06q-16,0-25.84-5.81A37.26,37.26,0,0,1,756.24,629,51.85,51.85,0,0,1,751,607a91.59,91.59,0,0,1,2.84-25.43l18.39-76.84h40.32L794.39,581q-1.35,6-2.3,12.17a37.75,37.75,0,0,0-.13,11.5,15.06,15.06,0,0,0,4.19,8.66q3.38,3.39,10.69,3.38a28.36,28.36,0,0,0,11.5-2.3,40.11,40.11,0,0,0,11.23-8q.54-6.76,1.75-14.2t2.57-13.67l17.59-73.86Z"/><path class="cls-1" d="M927.24,511.21q4.6-1.35,9.88-3.11a122.47,122.47,0,0,1,11.9-3.25,145.44,145.44,0,0,1,14.88-2.44,172.19,172.19,0,0,1,19.08-.94q13,0,21.51,3.25a48.08,48.08,0,0,1,15.56,9.73,137,137,0,0,1,19.88-9.33,66.79,66.79,0,0,1,23.14-3.65q12.72,0,21.78,3.38a38.93,38.93,0,0,1,15,9.74,38.36,38.36,0,0,1,8.65,15.15,65.39,65.39,0,0,1,2.71,19.35,83.21,83.21,0,0,1-.68,10.28,89.07,89.07,0,0,1-2,10.82L1090.13,647h-40.32l17.86-75.22c.54-2.53,1.12-5.37,1.76-8.53a47.48,47.48,0,0,0,.94-9.33,24,24,0,0,0-3.51-13.12q-3.52-5.55-13.8-5.55a29.31,29.31,0,0,0-10.83,2,89.23,89.23,0,0,0-9.19,4.19,16.88,16.88,0,0,1,.54,4.06v3.52a83.21,83.21,0,0,1-.68,10.28,91,91,0,0,1-2,10.82L1012.47,647H972.16L990,571.82c.55-2.53,1.13-5.37,1.76-8.53a47.5,47.5,0,0,0,1-9.33,23.94,23.94,0,0,0-3.52-13.12q-3.51-5.55-13.8-5.55a53.61,53.61,0,0,0-7.3.41c-2,.27-4.33.67-7,1.21L934.82,647H894.5Z"/><path class="cls-1" d="M207.05,887.19q-16.23,0-33.28-1.35a237.43,237.43,0,0,1-30.84-4.33l43.29-181.29a257.85,257.85,0,0,1,32.33-4.05q16.92-1.08,31-1.09,16.23,0,28,3.39t19.21,9.06a36.37,36.37,0,0,1,11.09,13.39,37.71,37.71,0,0,1,3.66,16.37,67.75,67.75,0,0,1-1.22,12.45,41,41,0,0,1-4.87,12.85,49.35,49.35,0,0,1-10,12,64.05,64.05,0,0,1-16.64,10.28q12.17,5.42,17.86,14.75a39.09,39.09,0,0,1,5.68,20.7,63.25,63.25,0,0,1-5.14,25,56.21,56.21,0,0,1-16.51,21.37q-11.37,9.35-29.49,14.88T207.05,887.19Zm-3.78-84.42-11.64,48.7a89.73,89.73,0,0,0,11,1.22q6.63.4,12.31.41a106.85,106.85,0,0,0,16.1-1.22,47,47,0,0,0,14.34-4.46,28.72,28.72,0,0,0,10.42-8.93q4.07-5.68,4.06-14.61a20.65,20.65,0,0,0-1.49-7.58,18,18,0,0,0-4.74-6.76,24.85,24.85,0,0,0-8.52-4.88,37.39,37.39,0,0,0-12.58-1.89Zm7.84-31.66h26.52q16.23,0,24.22-7t8-16.78a16.19,16.19,0,0,0-2.3-8.79,17.25,17.25,0,0,0-6.09-5.82,28.22,28.22,0,0,0-8.66-3.11,52.35,52.35,0,0,0-10-1q-5.69,0-12.17.41t-9.75,1Z"/><path class="cls-1" d="M354.24,884.75h-40L348,742.43h40.32Zm19.49-159.63a24.85,24.85,0,0,1-15.16-5q-6.76-5-6.76-15.29a25.19,25.19,0,0,1,2.3-10.68,28.1,28.1,0,0,1,6.09-8.66,29.22,29.22,0,0,1,8.79-5.82,26.7,26.7,0,0,1,10.69-2.16,24.89,24.89,0,0,1,15.15,5q6.76,5,6.76,15.29a25.5,25.5,0,0,1-2.29,10.69,28.56,28.56,0,0,1-6.09,8.66,29.36,29.36,0,0,1-8.8,5.81A26.52,26.52,0,0,1,373.73,725.12Z"/><path class="cls-1" d="M424.05,707l41.94-6.5-10.28,41.94h44.91l-8.12,33H447.86L436,825.23a67,67,0,0,0-2,11.63,19.05,19.05,0,0,0,1.36,9.34,12.51,12.51,0,0,0,6.09,6.09q4.32,2.16,11.9,2.16a64.13,64.13,0,0,0,12.58-1.22,91.64,91.64,0,0,0,12.31-3.38l3,30.85a147.09,147.09,0,0,1-17.59,5.14A102.1,102.1,0,0,1,441.09,888q-18.66,0-28.95-5.55a32,32,0,0,1-14.61-15.15,48,48,0,0,1-3.79-22A141.92,141.92,0,0,1,397.53,819Z"/><path class="cls-1" d="M496.56,827.93a99.77,99.77,0,0,1,5.95-34.63,85.3,85.3,0,0,1,17-28.41,79.64,79.64,0,0,1,26.92-19.21q15.82-7,35.31-7a94.63,94.63,0,0,1,21.78,2.29A87,87,0,0,1,621,747l-13.8,31.39q-5.41-2.16-11.23-3.92a49.69,49.69,0,0,0-14.2-1.76q-20.29,0-31.93,13.66t-11.63,37.2q0,13.8,5.95,22.33t21.92,8.52a69.78,69.78,0,0,0,15.15-1.62,74.55,74.55,0,0,0,13-4.06l3,32.2a139.48,139.48,0,0,1-16.64,5.27,91.06,91.06,0,0,1-22.05,2.3q-16.78,0-28.41-4.87a53.72,53.72,0,0,1-19.21-13.12,49.51,49.51,0,0,1-11-19.35A79.14,79.14,0,0,1,496.56,827.93Z"/><path class="cls-1" d="M670.54,888.54q-14.35,0-24.89-4.33A46,46,0,0,1,628.19,872a52.48,52.48,0,0,1-10.41-18.54,75.21,75.21,0,0,1-3.52-23.67,104.46,104.46,0,0,1,5.28-32.47,92.68,92.68,0,0,1,15.55-29.22,83.09,83.09,0,0,1,25.17-21.24q14.87-8.25,34.09-8.25,14.05,0,24.75,4.32a46,46,0,0,1,17.59,12.18,52.69,52.69,0,0,1,10.42,18.53,75.6,75.6,0,0,1,3.52,23.68,107.26,107.26,0,0,1-5.14,32.47,93.82,93.82,0,0,1-15.16,29.22,79.4,79.4,0,0,1-25,21.24Q690.3,888.54,670.54,888.54Zm20-115.8a25.18,25.18,0,0,0-15.69,5.14,44.19,44.19,0,0,0-11.37,13,63.74,63.74,0,0,0-6.9,17.18,74.29,74.29,0,0,0-2.3,17.72q0,13.8,4.33,21.24t15.7,7.44A25.2,25.2,0,0,0,690,849.31a43.91,43.91,0,0,0,11.36-13,63.87,63.87,0,0,0,6.9-17.18,74.29,74.29,0,0,0,2.3-17.72q0-13.8-4.33-21.24T690.56,772.74Z"/><path class="cls-1" d="M796.08,884.75H756l33.82-142.32h40.31Zm19.48-159.63a24.84,24.84,0,0,1-15.15-5q-6.76-5-6.77-15.29a25.34,25.34,0,0,1,2.3-10.68,28.27,28.27,0,0,1,6.09-8.66,29.39,29.39,0,0,1,8.8-5.82,26.65,26.65,0,0,1,10.68-2.16,24.94,24.94,0,0,1,15.16,5q6.75,5,6.76,15.29a25.36,25.36,0,0,1-2.3,10.69,28.22,28.22,0,0,1-6.09,8.66,29.44,29.44,0,0,1-8.79,5.81A26.54,26.54,0,0,1,815.56,725.12Z"/><path class="cls-1" d="M859.93,748.93q4.61-1.35,10.15-3.11c3.69-1.18,7.85-2.26,12.44-3.25s9.74-1.8,15.43-2.44a177.17,177.17,0,0,1,19.34-.94q31.92,0,43.84,18.4t4,50.32l-18.39,76.84H906.47l17.86-75.21q1.62-7,2.57-13.67a33.19,33.19,0,0,0-.14-11.63,13.75,13.75,0,0,0-5-8.12q-3.93-3.11-12-3.11a81.49,81.49,0,0,0-16,1.62L867.51,884.75H827.19Z"/><path class="cls-1" d="M408.42,184.4a1.31,1.31,0,0,0-.05-1.86c-28.62-27.34-56.72-55.8-79-88.59-6.33-9.77-20.2-31.8-14.75-43.1,2.86-4.9,9.37-5.57,14.83-5.66C348,46,369.7,52.78,395.71,64.56a92.39,92.39,0,0,1,10.2-11C373.68,40,328.73,24.71,310.07,40.07c-17.14,15.19,2.23,44.18,12.55,58.58,11.94,16.29,25.58,31.08,39.79,45.32s29,27.55,44.2,40.53A1.32,1.32,0,0,0,408.42,184.4Z"/><path class="cls-1" d="M497.49,233.65c-1,2.51-3.57,6.28-9.35,4.85.2.29-14.37-3.58-14.37-3.58l-10.59,23.23,26.55,6.62c4.94,1.24,9.78,2.54,14.55,3.76l-8.45,33.9,20.39,5.09L524.58,274c5.57,1.51,11,2.91,16.26,4.22l-8.33,33.39,20.4,5.09,8.45-33.84c34.79,6.58,61,3.92,72-27.55,8.88-25.34-.44-39.95-18.75-49.49,13.33-3.07,23.38-11.84,26.06-30,3.7-24.74-15.14-38.05-40.91-46.92l8.36-33.52L587.68,90.3l-8.13,32.64c-5.37-1.34-10.88-2.6-16.35-3.85l8.19-32.85L551,81.15l-8.36,33.51c-4.44-1-8.8-2-13-3.06l0-.1-28.14-7-5.43,21.79s15.14,3.47,14.82,3.69c8.27,2.06,9.76,7.53,9.51,11.87L510.87,180a15.23,15.23,0,0,1,2.12.68l-2.16-.54Zm60.21-90.46c11.52,2.88,48.62,8.23,42.63,32.28-5.76,23.05-41.27,11.34-52.79,8.47ZM542.42,204.5C556.25,208,600.6,214.79,594,241.21c-6.3,25.34-49,11.64-62.8,8.21Z"/><path class="cls-1" d="M604.1,387.94c-96.37,23.66-192.39-33.11-221-127.64A196.25,196.25,0,0,0,394,290a188.2,188.2,0,0,0,219.5,102.9c16.18-4.35,26.72-8,41.06-16.25-4-1.67-5.5-2.36-9.61-4.34C630.27,380.79,620.74,383.83,604.1,387.94Z"/><path class="cls-1" d="M766.52,318.84c-6.49-8-10.48-13.64-17.32-21.13-3.05,6.24-6.54,12.71-10.45,19.12,5.08,6,7,8.57,11.7,14.9A166.61,166.61,0,0,1,765.1,355c2.5,5.07,5,10.85,5.23,16.44a4.85,4.85,0,0,1-.39,2.41.18.18,0,0,0,0,.09s0,0-.06,0-.05.06-.07.09a4,4,0,0,1-.43.28,5.82,5.82,0,0,1-1.17.5,22.17,22.17,0,0,1-7.13.9,83.83,83.83,0,0,1-19-2.88c-13.48-3.45-26.43-8.48-39.29-14q-5.46-2.4-10.88-4.92c22.44-16.49,39-43.84,49.41-66.6,36.06-78,18-172.12-45.45-231.73a202.46,202.46,0,0,0-93.1-50.08c-75.2-18.1-154.23,9.6-202.76,67.88a26.5,26.5,0,1,0,21,14.57,180.83,180.83,0,0,1,90.17-59.8c38-11.17,79.93-8.85,117,5.66a185.24,185.24,0,0,1,55.76,34.56c61.31,54.91,79,143.94,45.17,217.75a184.27,184.27,0,0,1-38.3,54.95,66.92,66.92,0,0,1-10,7.52c-14-6.9-27.68-14.34-41.2-22.14A25.7,25.7,0,1,0,628,351c12.33,6.58,24.82,12.9,37.55,18.84,22.66,10.42,45.8,20.14,70.41,25.78,16.32,3.42,40.89,7.1,52.07-10.33C800.74,364.33,778.52,334.66,766.52,318.84Z"/></g></g></svg>