<svg xmlns="http://www.w3.org/2000/svg" viewBox="0 0 1988.01 684.43"><defs><style>.cls-1{fill:#f7941d;}</style></defs><g id="Layer_2" data-name="Layer 2"><g id="Layer_1-2" data-name="Layer 1"><path class="cls-1" d="M854.88,184.4a1.31,1.31,0,0,0,0-1.86c-28.62-27.34-56.72-55.8-79-88.59-6.33-9.77-20.2-31.8-14.75-43.1,2.86-4.9,9.37-5.57,14.83-5.66,18.53.81,40.24,7.59,66.25,19.37a92.39,92.39,0,0,1,10.2-11C820.15,40,775.19,24.71,756.53,40.07c-17.14,15.19,2.23,44.18,12.55,58.58C781,114.94,794.66,129.73,808.87,144s29,27.55,44.2,40.53A1.32,1.32,0,0,0,854.88,184.4Z"/><path class="cls-1" d="M944,233.65c-1,2.51-3.57,6.28-9.35,4.85.2.29-14.37-3.58-14.37-3.58l-10.59,23.23,26.55,6.62c4.94,1.24,9.78,2.54,14.55,3.76l-8.45,33.9,20.39,5.09L971,274c5.57,1.51,11,2.91,16.26,4.22L979,311.58l20.4,5.09,8.45-33.84c34.79,6.58,61,3.92,72-27.55,8.88-25.34-.44-39.95-18.75-49.49,13.34-3.07,23.38-11.84,26.06-30,3.7-24.74-15.14-38.05-40.91-46.92l8.36-33.52-20.4-5.09L1026,122.94c-5.37-1.34-10.87-2.6-16.35-3.85l8.19-32.85-20.39-5.09-8.36,33.51c-4.44-1-8.8-2-13-3.06l0-.1-28.14-7-5.43,21.79s15.14,3.47,14.82,3.69c8.27,2.06,9.76,7.53,9.51,11.87L957.33,180a15.23,15.23,0,0,1,2.12.68l-2.15-.54Zm60.21-90.46c11.52,2.88,48.62,8.23,42.63,32.28-5.76,23.05-41.27,11.34-52.79,8.47ZM988.88,204.5c13.83,3.45,58.19,10.29,51.6,36.71-6.31,25.34-49,11.64-62.81,8.21Z"/><path class="cls-1" d="M1050.56,387.94c-96.37,23.66-192.39-33.11-221-127.64A196.25,196.25,0,0,0,840.49,290,188.2,188.2,0,0,0,1060,392.86c16.18-4.35,26.72-8,41.06-16.25-4-1.67-5.49-2.36-9.61-4.34C1076.73,380.79,1067.2,383.83,1050.56,387.94Z"/><path class="cls-1" d="M1213,318.84c-6.49-8-10.48-13.64-17.32-21.13-3.05,6.24-6.54,12.71-10.45,19.12,5.08,6,7,8.57,11.7,14.9A166.61,166.61,0,0,1,1211.56,355c2.5,5.07,5,10.85,5.24,16.44a4.93,4.93,0,0,1-.4,2.41.18.18,0,0,0,0,.09s0,0-.06,0,0,.06-.07.09a4,4,0,0,1-.43.28,6,6,0,0,1-1.16.5,22.23,22.23,0,0,1-7.14.9,83.83,83.83,0,0,1-19-2.88c-13.48-3.45-26.43-8.48-39.28-14q-5.48-2.4-10.89-4.92c22.44-16.49,39-43.84,49.41-66.6,36.06-78,18-172.12-45.45-231.73a202.46,202.46,0,0,0-93.1-50.08C974-12.61,895,15.09,846.44,73.37a26.5,26.5,0,1,0,21,14.57,180.83,180.83,0,0,1,90.17-59.8c38-11.17,79.93-8.85,117,5.66a185.24,185.24,0,0,1,55.76,34.56c61.31,54.91,79,143.94,45.17,217.75a184.27,184.27,0,0,1-38.3,54.95,66.65,66.65,0,0,1-10,7.52c-14-6.9-27.69-14.34-41.21-22.14A25.7,25.7,0,1,0,1074.44,351c12.33,6.58,24.82,12.9,37.55,18.84,22.66,10.42,45.8,20.14,70.41,25.78,16.32,3.42,40.89,7.1,52.07-10.33C1247.2,364.33,1225,334.66,1213,318.84Z"/><path class="cls-1" d="M131.77,684.43q-21.38-.81-35.72-4.32t-23.13-9.34a33.71,33.71,0,0,1-12.58-14.2,45.5,45.5,0,0,1-3.79-18.94v-1.9q-26-5.4-41.26-25.16T0,558.89A126,126,0,0,1,7.31,517a122.2,122.2,0,0,1,21-37.47,107.57,107.57,0,0,1,33.42-27.06Q81.44,442,106.33,442a82.48,82.48,0,0,1,30.31,5.41A67.91,67.91,0,0,1,160.45,463,70.25,70.25,0,0,1,176,487.73q5.53,14.61,5.54,33a128.9,128.9,0,0,1-5.68,37.47,122.9,122.9,0,0,1-16.64,34.64A111.17,111.17,0,0,1,132.45,620a92.31,92.31,0,0,1-36.13,15.42v.81a12.07,12.07,0,0,0,3.93,9.47,26.43,26.43,0,0,0,10.55,5.41,84.82,84.82,0,0,0,15.29,2.71q8.66.81,18.13,1.35ZM102,478.26a43.77,43.77,0,0,0-23.14,6.49A65.28,65.28,0,0,0,60.2,502.07,84.66,84.66,0,0,0,47.76,527a95,95,0,0,0-4.47,28.95q0,20.3,8.52,32.88t27.74,12.58a43.85,43.85,0,0,0,23.13-6.49,65.28,65.28,0,0,0,18.67-17.32A85.29,85.29,0,0,0,133.8,552.8a94.92,94.92,0,0,0,4.46-29.09q0-20.28-8.52-32.87T102,478.26Z"/><path class="cls-1" d="M333.89,491.52l-19.22,80.9a90,90,0,0,0-2.16,31,110.82,110.82,0,0,0,6.22,27.73l-36,5.14A129.09,129.09,0,0,1,277.07,623,76.11,76.11,0,0,1,260,633a53.19,53.19,0,0,1-21.11,4.05q-16,0-25.83-5.81a37.26,37.26,0,0,1-14.75-15.43,51.85,51.85,0,0,1-5.28-22.05,92.35,92.35,0,0,1,2.84-25.43l18.4-76.84h40.32l-18.13,76.3q-1.36,6-2.3,12.17a38.09,38.09,0,0,0-.14,11.5,15.13,15.13,0,0,0,4.2,8.66q3.38,3.39,10.69,3.38a28.39,28.39,0,0,0,11.5-2.3,40.08,40.08,0,0,0,11.22-8q.54-6.76,1.76-14.2T276,565.38l17.59-73.86Z"/><path class="cls-1" d="M467.28,572.42a89.79,89.79,0,0,0-2.17,31,111.25,111.25,0,0,0,6.23,27.73l-36,5.14c-1.08-2.16-2.08-4.23-3-6.22s-1.8-4.24-2.7-6.77a72.06,72.06,0,0,1-16.78,10.29,50.47,50.47,0,0,1-20.56,4.06q-13.53,0-23.13-4.74a43.47,43.47,0,0,1-15.7-12.72,50.91,50.91,0,0,1-8.79-18.67,97.05,97.05,0,0,1,3.92-58A89.54,89.54,0,0,1,367,514.65a86,86,0,0,1,27.73-19.35,85.09,85.09,0,0,1,34.64-7q2.43,0,8.52.27t13.94,1.22a135,135,0,0,1,16.5,3.11,86.76,86.76,0,0,1,16.51,5.95Zm-28.14-49.79q-3.52-.54-6.36-.81t-6.9-.27a33.8,33.8,0,0,0-17.18,4.6,49.33,49.33,0,0,0-13.94,12,57.23,57.23,0,0,0-9.33,17.18,61.28,61.28,0,0,0-3.38,20.29q0,13,4.33,20.57t16,7.57a25.39,25.39,0,0,0,11.23-2.43,41.35,41.35,0,0,0,10.69-8.12q.54-6.76,1.76-14.2t2.57-13.67Z"/><path class="cls-1" d="M520.31,498q4.59-1.35,10.15-3.11t12.44-3.25a154.83,154.83,0,0,1,15.42-2.43,177.18,177.18,0,0,1,19.35-1q31.92,0,43.83,18.4T625.56,557l-18.4,76.85H566.85l17.86-75.22q1.62-7,2.57-13.67a33.19,33.19,0,0,0-.14-11.63,13.78,13.78,0,0,0-5-8.12q-3.93-3.11-12-3.11a81.39,81.39,0,0,0-16,1.62L527.89,633.84H487.57Z"/><path class="cls-1" d="M674.26,456.07l41.94-6.49-10.28,41.94h44.91l-8.11,33H698.07l-11.9,49.78a65.1,65.1,0,0,0-2,11.64,19.11,19.11,0,0,0,1.35,9.33,12.43,12.43,0,0,0,6.09,6.09q4.32,2.16,11.9,2.16a64.23,64.23,0,0,0,12.59-1.21,94.07,94.07,0,0,0,12.31-3.39l3,30.85a143.31,143.31,0,0,1-17.58,5.14,102.16,102.16,0,0,1-22.46,2.16q-18.67,0-28.95-5.54t-14.61-15.15A47.84,47.84,0,0,1,644,594.33a141.19,141.19,0,0,1,3.79-26.24Z"/><path class="cls-1" d="M891.8,491.52l-19.21,80.9a89.79,89.79,0,0,0-2.17,31,111.26,111.26,0,0,0,6.22,27.73l-36,5.14A129.09,129.09,0,0,1,835,623a75.89,75.89,0,0,1-17.05,10,53.14,53.14,0,0,1-21.1,4.05q-16,0-25.84-5.81a37.26,37.26,0,0,1-14.75-15.43A51.85,51.85,0,0,1,751,593.79a91.59,91.59,0,0,1,2.84-25.43l18.39-76.84h40.32l-18.13,76.3q-1.35,6-2.3,12.17a37.75,37.75,0,0,0-.13,11.5,15.06,15.06,0,0,0,4.19,8.66q3.38,3.39,10.69,3.38a28.36,28.36,0,0,0,11.5-2.3,40.11,40.11,0,0,0,11.23-8q.54-6.76,1.75-14.2t2.57-13.67l17.59-73.86Z"/><path class="cls-1" d="M927.24,498q4.6-1.35,9.88-3.11t11.9-3.25a142.88,142.88,0,0,1,14.88-2.43,169.59,169.59,0,0,1,19.08-1q13,0,21.51,3.25a47.94,47.94,0,0,1,15.56,9.74,136,136,0,0,1,19.88-9.34,66.79,66.79,0,0,1,23.14-3.65q12.72,0,21.78,3.38a38.93,38.93,0,0,1,15,9.74,38.36,38.36,0,0,1,8.65,15.15,65.39,65.39,0,0,1,2.71,19.35,83.21,83.21,0,0,1-.68,10.28,89.07,89.07,0,0,1-2,10.82l-18.39,76.85h-40.32l17.86-75.22c.54-2.53,1.12-5.37,1.76-8.52a47.65,47.65,0,0,0,.94-9.34,24,24,0,0,0-3.51-13.12q-3.52-5.55-13.8-5.55a29.31,29.31,0,0,0-10.83,2,89.23,89.23,0,0,0-9.19,4.19,16.88,16.88,0,0,1,.54,4.06v3.52a83.21,83.21,0,0,1-.68,10.28,91,91,0,0,1-2,10.82l-18.4,76.85H972.16L990,558.62c.55-2.53,1.13-5.37,1.76-8.52a47.67,47.67,0,0,0,1-9.34,23.94,23.94,0,0,0-3.52-13.12q-3.51-5.55-13.8-5.55a55.28,55.28,0,0,0-7.3.41c-2,.27-4.33.67-7,1.21L934.82,633.84H894.5Z"/><path class="cls-1" d="M1226.76,636.27q-16.23,0-33.28-1.35a235.48,235.48,0,0,1-30.84-4.33l43.29-181.28a255.75,255.75,0,0,1,32.33-4.06q16.9-1.08,31-1.08,16.23,0,28,3.38t19.21,9.06a36.51,36.51,0,0,1,11.09,13.4,37.8,37.8,0,0,1,3.65,16.36,66.89,66.89,0,0,1-1.22,12.45,40.62,40.62,0,0,1-4.87,12.85,48.72,48.72,0,0,1-10,12A64.16,64.16,0,0,1,1298.46,534q12.18,5.41,17.86,14.74a39,39,0,0,1,5.68,20.7,63.25,63.25,0,0,1-5.14,25,56.21,56.21,0,0,1-16.5,21.37q-11.37,9.35-29.5,14.88T1226.76,636.27ZM1223,551.85l-11.63,48.71a91.78,91.78,0,0,0,11,1.21q6.62.4,12.31.41a106.94,106.94,0,0,0,16.1-1.22,47,47,0,0,0,14.34-4.46,28.59,28.59,0,0,0,10.41-8.93q4.07-5.69,4.06-14.61a20.65,20.65,0,0,0-1.49-7.58,18.2,18.2,0,0,0-4.73-6.76,24.87,24.87,0,0,0-8.52-4.87,37.44,37.44,0,0,0-12.59-1.9Zm7.85-31.65h26.51q16.25,0,24.22-7t8-16.77a16.31,16.31,0,0,0-2.29-8.8,17.33,17.33,0,0,0-6.09-5.82,28.48,28.48,0,0,0-8.66-3.11,52.51,52.51,0,0,0-10-.94q-5.68,0-12.18.4c-4.33.27-7.57.59-9.74.95Z"/><path class="cls-1" d="M1374,633.84h-40l33.83-142.32H1408Zm19.48-159.64a24.84,24.84,0,0,1-15.15-5q-6.77-5-6.77-15.28a25.36,25.36,0,0,1,2.3-10.69,28.22,28.22,0,0,1,6.09-8.66,29.39,29.39,0,0,1,8.8-5.82,26.65,26.65,0,0,1,10.68-2.16,24.94,24.94,0,0,1,15.16,5q6.75,5,6.76,15.29a25.36,25.36,0,0,1-2.3,10.69,28.22,28.22,0,0,1-6.09,8.66,29.66,29.66,0,0,1-8.79,5.82A26.7,26.7,0,0,1,1393.43,474.2Z"/><path class="cls-1" d="M1443.76,456.07l41.93-6.49-10.28,41.94h44.92l-8.12,33h-44.65l-11.9,49.78a66,66,0,0,0-2,11.64,19.11,19.11,0,0,0,1.35,9.33,12.43,12.43,0,0,0,6.09,6.09q4.32,2.16,11.91,2.16a64.2,64.2,0,0,0,12.58-1.21,93.22,93.22,0,0,0,12.31-3.39l3,30.85a144,144,0,0,1-17.59,5.14,102.16,102.16,0,0,1-22.46,2.16q-18.67,0-29-5.54t-14.61-15.15a48,48,0,0,1-3.79-22.06,141.19,141.19,0,0,1,3.79-26.24Z"/><path class="cls-1" d="M1516.26,577a99.83,99.83,0,0,1,6-34.64,85.12,85.12,0,0,1,17-28.41,80,80,0,0,1,26.92-19.21,86.06,86.06,0,0,1,35.31-7,94,94,0,0,1,21.78,2.3,85.89,85.89,0,0,1,17.46,6.09l-13.8,31.38q-5.42-2.16-11.23-3.92a49.77,49.77,0,0,0-14.21-1.76q-20.28,0-31.92,13.66t-11.64,37.21q0,13.8,6,22.32t21.92,8.52a69.78,69.78,0,0,0,15.15-1.62,73.7,73.7,0,0,0,13-4.06l3,32.2a138.22,138.22,0,0,1-16.64,5.28,91.17,91.17,0,0,1-22,2.3q-16.79,0-28.42-4.88a53.69,53.69,0,0,1-19.21-13.12,49.45,49.45,0,0,1-10.95-19.34A79.24,79.24,0,0,1,1516.26,577Z"/><path class="cls-1" d="M1690.24,637.63q-14.34,0-24.89-4.33a46.21,46.21,0,0,1-17.45-12.18,52.54,52.54,0,0,1-10.42-18.53,75.32,75.32,0,0,1-3.52-23.68,104.51,104.51,0,0,1,5.28-32.47,92.91,92.91,0,0,1,15.56-29.22A83,83,0,0,1,1680,496q14.88-8.25,34.09-8.25,14.07,0,24.76,4.33a45.9,45.9,0,0,1,17.59,12.17,52.56,52.56,0,0,1,10.41,18.54,75.25,75.25,0,0,1,3.52,23.67,106.91,106.91,0,0,1-5.14,32.47A94,94,0,0,1,1750,608.13a79.55,79.55,0,0,1-25,21.24Q1710,637.62,1690.24,637.63Zm20-115.81a25.27,25.27,0,0,0-15.7,5.14,44,44,0,0,0-11.36,13,63.87,63.87,0,0,0-6.9,17.18,73.78,73.78,0,0,0-2.3,17.72q0,13.8,4.33,21.24t15.69,7.44a25.2,25.2,0,0,0,15.69-5.14,43.94,43.94,0,0,0,11.37-13,64.39,64.39,0,0,0,6.9-17.18,74.29,74.29,0,0,0,2.3-17.72q0-13.8-4.33-21.24T1710.27,521.82Z"/><path class="cls-1" d="M1815.78,633.84h-40l33.82-142.32h40.32Zm19.49-159.64a24.85,24.85,0,0,1-15.16-5q-6.77-5-6.76-15.28a25.2,25.2,0,0,1,2.3-10.69,28.22,28.22,0,0,1,6.09-8.66,29.22,29.22,0,0,1,8.79-5.82,26.7,26.7,0,0,1,10.69-2.16,24.89,24.89,0,0,1,15.15,5q6.77,5,6.76,15.29a25.5,25.5,0,0,1-2.29,10.69,28.56,28.56,0,0,1-6.09,8.66A29.58,29.58,0,0,1,1846,472,26.69,26.69,0,0,1,1835.27,474.2Z"/><path class="cls-1" d="M1879.64,498q4.59-1.35,10.14-3.11t12.45-3.25a154.83,154.83,0,0,1,15.42-2.43,177,177,0,0,1,19.35-1q31.92,0,43.83,18.4t4.06,50.32l-18.4,76.85h-40.31L1944,558.62q1.63-7,2.57-13.67a33.21,33.21,0,0,0-.13-11.63,13.74,13.74,0,0,0-5-8.12q-3.92-3.11-12-3.11a81.39,81.39,0,0,0-16,1.62l-26.25,110.13H1846.9Z"/></g></g></svg>