<svg xmlns="http://www.w3.org/2000/svg" viewBox="0 0 1626 431.02"><defs><style>.cls-1{fill:#f7941d;}</style></defs><g id="Layer_2" data-name="Layer 2"><g id="Layer_1-2" data-name="Layer 1"><path class="cls-1" d="M646.54,242.43q-21.37-.81-35.72-4.33t-23.13-9.33a33.67,33.67,0,0,1-12.58-14.21,45.43,45.43,0,0,1-3.79-18.94v-1.89q-26-5.41-41.26-25.16t-15.29-51.68A126,126,0,0,1,522.08,75a122.39,122.39,0,0,1,21-37.48,107.53,107.53,0,0,1,33.41-27Q596.21,0,621.11,0a82.46,82.46,0,0,1,30.3,5.41A67.82,67.82,0,0,1,675.22,21a70.25,70.25,0,0,1,15.56,24.76q5.54,14.61,5.55,33a128.92,128.92,0,0,1-5.69,37.47A122.44,122.44,0,0,1,674,150.84,111,111,0,0,1,647.22,178a92.33,92.33,0,0,1-36.12,15.42v.81a12.07,12.07,0,0,0,3.92,9.47,26.43,26.43,0,0,0,10.55,5.41,84.82,84.82,0,0,0,15.29,2.71q8.65.81,18.13,1.35ZM616.78,36.26a43.77,43.77,0,0,0-23.14,6.49A65.27,65.27,0,0,0,575,60.07,84.54,84.54,0,0,0,562.53,85a95,95,0,0,0-4.47,29q0,20.29,8.53,32.88t27.73,12.58a43.74,43.74,0,0,0,23.13-6.5,65.25,65.25,0,0,0,18.67-17.31,85.29,85.29,0,0,0,12.45-24.76A94.61,94.61,0,0,0,653,81.71q0-20.29-8.52-32.87T616.78,36.26Z"/><path class="cls-1" d="M848.66,49.52l-19.21,80.9a89.79,89.79,0,0,0-2.17,31,110.81,110.81,0,0,0,6.23,27.73l-36,5.14A130,130,0,0,1,791.84,181a75.71,75.71,0,0,1-17.05,10,53,53,0,0,1-21.1,4.06q-16,0-25.84-5.81a37.26,37.26,0,0,1-14.75-15.43,51.85,51.85,0,0,1-5.28-22.05,92,92,0,0,1,2.85-25.43l18.39-76.84h40.32l-18.13,76.3q-1.35,6-2.3,12.17a37.75,37.75,0,0,0-.13,11.5,15.06,15.06,0,0,0,4.19,8.66q3.38,3.39,10.69,3.38a28.39,28.39,0,0,0,11.5-2.3,40.11,40.11,0,0,0,11.23-8q.52-6.76,1.75-14.2t2.57-13.67l17.59-73.86Z"/><path class="cls-1" d="M982.05,130.42a89.54,89.54,0,0,0-2.16,31,110.82,110.82,0,0,0,6.22,27.73l-36,5.14q-1.62-3.24-3-6.22t-2.71-6.77a72.06,72.06,0,0,1-16.78,10.29,50.47,50.47,0,0,1-20.56,4.05q-13.53,0-23.13-4.73a43.47,43.47,0,0,1-15.7-12.72,50.91,50.91,0,0,1-8.79-18.67,92.53,92.53,0,0,1-2.71-22.86,93.51,93.51,0,0,1,6.63-35.18,89.66,89.66,0,0,1,18.4-28.81A85.94,85.94,0,0,1,909.54,53.3a84.88,84.88,0,0,1,34.63-7q2.43,0,8.52.27t13.94,1.22a135,135,0,0,1,16.5,3.11,86.08,86.08,0,0,1,16.51,6ZM953.91,80.63c-2.35-.36-4.46-.63-6.36-.81s-4.19-.27-6.9-.27a33.8,33.8,0,0,0-17.18,4.6,49.16,49.16,0,0,0-13.93,12,57.47,57.47,0,0,0-9.34,17.18,61.28,61.28,0,0,0-3.38,20.29q0,13,4.33,20.57t16,7.57a25.39,25.39,0,0,0,11.23-2.43A41.41,41.41,0,0,0,939,151.25q.54-6.76,1.76-14.2t2.57-13.67Z"/><path class="cls-1" d="M1035.08,56q4.61-1.35,10.15-3.11t12.44-3.25q6.9-1.49,15.43-2.44a179.72,179.72,0,0,1,19.34-.94q31.92,0,43.83,18.4t4.06,50.32l-18.39,76.85h-40.32l17.86-75.22q1.62-7,2.57-13.67a33.19,33.19,0,0,0-.14-11.63,13.78,13.78,0,0,0-5-8.12q-3.93-3.11-12-3.11a81.42,81.42,0,0,0-16,1.62l-26.24,110.13h-40.32Z"/><path class="cls-1" d="M1189,14.07,1231,7.58l-10.28,41.94h44.92l-8.12,33h-44.65l-11.9,49.78a66.06,66.06,0,0,0-2,11.63,19.13,19.13,0,0,0,1.35,9.34,12.43,12.43,0,0,0,6.09,6.09q4.32,2.16,11.9,2.16a63.47,63.47,0,0,0,12.59-1.22,92.05,92.05,0,0,0,12.31-3.38l3,30.85a145.09,145.09,0,0,1-17.58,5.14,102.16,102.16,0,0,1-22.46,2.16q-18.67,0-28.95-5.54t-14.61-15.16a47.91,47.91,0,0,1-3.79-22,141.19,141.19,0,0,1,3.79-26.24Z"/><path class="cls-1" d="M1406.57,49.52l-19.21,80.9a89.79,89.79,0,0,0-2.17,31,111.25,111.25,0,0,0,6.23,27.73l-36,5.14a130,130,0,0,1-5.68-13.26,75.49,75.49,0,0,1-17,10,53,53,0,0,1-21.1,4.06q-16,0-25.84-5.81A37.26,37.26,0,0,1,1271,173.84a52,52,0,0,1-5.27-22.05,92,92,0,0,1,2.84-25.43L1287,49.52h40.31l-18.13,76.3q-1.35,6-2.3,12.17a38.07,38.07,0,0,0-.13,11.5,15.06,15.06,0,0,0,4.19,8.66q3.38,3.39,10.69,3.38a28.36,28.36,0,0,0,11.5-2.3,40,40,0,0,0,11.23-8q.54-6.76,1.76-14.2t2.57-13.67l17.58-73.86Z"/><path class="cls-1" d="M1442,56q4.6-1.35,9.88-3.11a123.26,123.26,0,0,1,11.9-3.25,145.44,145.44,0,0,1,14.88-2.44,172.32,172.32,0,0,1,19.08-.94q13,0,21.51,3.25a47.94,47.94,0,0,1,15.56,9.74,135.64,135.64,0,0,1,19.89-9.34,66.69,66.69,0,0,1,23.13-3.65q12.72,0,21.78,3.38a38.93,38.93,0,0,1,15,9.74,38.5,38.5,0,0,1,8.66,15.15,65.72,65.72,0,0,1,2.7,19.35,85.12,85.12,0,0,1-.67,10.28,93.1,93.1,0,0,1-2,10.82l-18.4,76.85h-40.32l17.86-75.22c.54-2.53,1.12-5.37,1.76-8.53a47.5,47.5,0,0,0,1-9.33,24,24,0,0,0-3.52-13.12q-3.53-5.55-13.8-5.55a29.22,29.22,0,0,0-10.82,2,88.48,88.48,0,0,0-9.2,4.19,16.88,16.88,0,0,1,.54,4.06v3.52a83.21,83.21,0,0,1-.68,10.28,91,91,0,0,1-2,10.82l-18.4,76.85h-40.31l17.86-75.22q.81-3.8,1.75-8.53a47.5,47.5,0,0,0,1-9.33A23.94,23.94,0,0,0,1504,85.64q-3.51-5.55-13.8-5.55a53.61,53.61,0,0,0-7.3.41c-2,.27-4.33.67-7,1.21l-26.24,110.13h-40.32Z"/><path class="cls-1" d="M703.56,429.66q-16.24,0-33.28-1.35A234,234,0,0,1,639.43,424L682.72,242.7a258,258,0,0,1,32.34-4.06q16.91-1.08,31-1.08,16.23,0,28,3.38T793.25,250a36.4,36.4,0,0,1,11.09,13.4A37.71,37.71,0,0,1,808,279.77a67.65,67.65,0,0,1-1.22,12.44,41,41,0,0,1-4.87,12.86,49.35,49.35,0,0,1-10,12,64.59,64.59,0,0,1-16.64,10.28q12.18,5.42,17.86,14.74a39.14,39.14,0,0,1,5.68,20.7,63.21,63.21,0,0,1-5.14,25,56.24,56.24,0,0,1-16.51,21.38q-11.35,9.33-29.49,14.88T703.56,429.66Zm-3.79-84.41L688.14,394a91.32,91.32,0,0,0,11,1.22q6.63.4,12.31.4a106.84,106.84,0,0,0,16.1-1.21,47.24,47.24,0,0,0,14.34-4.47A28.53,28.53,0,0,0,752.26,381q4.07-5.68,4.06-14.61a20.69,20.69,0,0,0-1.49-7.58A18.2,18.2,0,0,0,750.1,352a25,25,0,0,0-8.53-4.87A37.39,37.39,0,0,0,729,345.25Zm7.84-31.66h26.52q16.23,0,24.22-7t8-16.77A16.23,16.23,0,0,0,764,281a17.13,17.13,0,0,0-6.09-5.81,28.22,28.22,0,0,0-8.66-3.11,52.35,52.35,0,0,0-10-.95q-5.68,0-12.17.41t-9.74.94Z"/><path class="cls-1" d="M850.74,427.23h-40l33.82-142.32h40.32Zm19.49-159.64a24.84,24.84,0,0,1-15.16-5q-6.77-5-6.76-15.29a25.36,25.36,0,0,1,2.3-10.69A28.34,28.34,0,0,1,856.7,228a29.19,29.19,0,0,1,8.79-5.81A26.54,26.54,0,0,1,876.18,220a24.84,24.84,0,0,1,15.15,5q6.76,5,6.77,15.28A25.32,25.32,0,0,1,895.8,251a28.56,28.56,0,0,1-6.09,8.66,29.47,29.47,0,0,1-8.79,5.82A26.7,26.7,0,0,1,870.23,267.59Z"/><path class="cls-1" d="M920.55,249.46,962.49,243l-10.28,41.94h44.91l-8.11,33H944.36l-11.9,49.78a65.1,65.1,0,0,0-2,11.64,19,19,0,0,0,1.35,9.33,12.43,12.43,0,0,0,6.09,6.09q4.32,2.17,11.9,2.17a64.13,64.13,0,0,0,12.58-1.22,93.15,93.15,0,0,0,12.31-3.38l3,30.84a143,143,0,0,1-17.59,5.14,102,102,0,0,1-22.45,2.17q-18.68,0-29-5.55A32.07,32.07,0,0,1,894,409.78a47.91,47.91,0,0,1-3.78-22A142,142,0,0,1,894,361.48Z"/><path class="cls-1" d="M993.06,370.41a99.73,99.73,0,0,1,6-34.63,85.11,85.11,0,0,1,17-28.41A79.64,79.64,0,0,1,1043,288.16a86,86,0,0,1,35.31-7,94,94,0,0,1,21.78,2.3,85.8,85.8,0,0,1,17.45,6.09l-13.79,31.38q-5.43-2.16-11.23-3.92a49.81,49.81,0,0,0-14.21-1.76q-20.3,0-31.93,13.67t-11.63,37.2q0,13.8,6,22.32t21.92,8.53a69.78,69.78,0,0,0,15.15-1.63,72.88,72.88,0,0,0,13-4.06l3,32.2a137.65,137.65,0,0,1-16.64,5.28,91.06,91.06,0,0,1-22,2.3q-16.79,0-28.41-4.87A53.74,53.74,0,0,1,1007.4,413a49.47,49.47,0,0,1-11-19.34A79.19,79.19,0,0,1,993.06,370.41Z"/><path class="cls-1" d="M1167,431q-14.34,0-24.89-4.33a46,46,0,0,1-17.46-12.18A52.58,52.58,0,0,1,1114.28,396a75.32,75.32,0,0,1-3.52-23.68,104.51,104.51,0,0,1,5.28-32.47,92.89,92.89,0,0,1,15.55-29.22,83.23,83.23,0,0,1,25.17-21.24q14.88-8.25,34.09-8.25a65.75,65.75,0,0,1,24.76,4.33,46,46,0,0,1,17.58,12.18,52.54,52.54,0,0,1,10.42,18.53,75.59,75.59,0,0,1,3.52,23.67A107.21,107.21,0,0,1,1242,372.3a94,94,0,0,1-15.15,29.23,79.65,79.65,0,0,1-25,21.23Q1186.8,431,1167,431Zm20-115.81a25.24,25.24,0,0,0-15.69,5.14,44.19,44.19,0,0,0-11.37,13,63.66,63.66,0,0,0-6.89,17.18,73.91,73.91,0,0,0-2.3,17.72q0,13.8,4.32,21.24t15.7,7.45a25.21,25.21,0,0,0,15.69-5.15,44,44,0,0,0,11.36-13,63.8,63.8,0,0,0,6.9-17.19,74.22,74.22,0,0,0,2.3-17.72q0-13.8-4.32-21.24T1187.06,315.21Z"/><path class="cls-1" d="M1292.58,427.23h-40l33.82-142.32h40.31Zm19.48-159.64a24.83,24.83,0,0,1-15.15-5q-6.77-5-6.76-15.29a25.2,25.2,0,0,1,2.3-10.69,28.48,28.48,0,0,1,6.08-8.66,29.36,29.36,0,0,1,8.8-5.81A26.5,26.5,0,0,1,1318,220a24.86,24.86,0,0,1,15.15,5q6.75,5,6.76,15.28a25.32,25.32,0,0,1-2.3,10.69,28.22,28.22,0,0,1-6.09,8.66,29.22,29.22,0,0,1-8.79,5.82A26.7,26.7,0,0,1,1312.06,267.59Z"/><path class="cls-1" d="M1356.43,291.4q4.6-1.35,10.15-3.11T1379,285a154.83,154.83,0,0,1,15.42-2.43,177,177,0,0,1,19.34-.95q31.93,0,43.84,18.4t4.06,50.33l-18.4,76.84H1403L1420.83,352q1.62-7,2.57-13.66a33.51,33.51,0,0,0-.13-11.64,13.87,13.87,0,0,0-5-8.12q-3.93-3.1-12-3.11a80.76,80.76,0,0,0-16,1.63L1364,427.23H1323.7Z"/><path class="cls-1" d="M110.73,204.79a1.38,1.38,0,0,0-.06-1.95C80.54,174.05,51,144.08,27.5,109.56,20.83,99.27,6.24,76.07,12,64.18c3-5.16,9.86-5.87,15.61-6,19.52.85,42.38,8,69.76,20.4a98.27,98.27,0,0,1,10.74-11.56C74.15,52.7,26.82,36.65,7.17,52.83c-18,16,2.35,46.51,13.21,61.67,12.58,17.17,26.94,32.73,41.9,47.73s30.56,29,46.54,42.67A1.4,1.4,0,0,0,110.73,204.79Z"/><path class="cls-1" d="M204.51,256.65c-1.06,2.65-3.76,6.61-9.85,5.11.22.31-15.13-3.77-15.13-3.77l-11.15,24.46,28,7c5.2,1.31,10.3,2.67,15.32,4l-8.89,35.7,21.46,5.35,8.8-35.32c5.87,1.59,11.56,3.06,17.13,4.44l-8.78,35.16,21.49,5.35,8.89-35.63c36.63,6.93,64.18,4.14,75.78-29,9.35-26.68-.46-42.07-19.74-52.11,14-3.23,24.61-12.47,27.43-31.54,3.9-26.06-15.94-40.07-43.07-49.41l8.8-35.3-21.48-5.35-8.57,34.36c-5.65-1.4-11.45-2.73-17.21-4.05l8.63-34.59-21.48-5.36-8.8,35.29c-4.68-1.07-9.27-2.12-13.72-3.23l0-.11-29.63-7.39L203,143.58s15.95,3.66,15.61,3.88c8.7,2.18,10.27,7.93,10,12.5l-10,40.21a16.43,16.43,0,0,1,2.23.72l-2.27-.57Zm63.4-95.24c12.13,3,51.19,8.67,44.88,34-6.06,24.27-43.45,11.94-55.58,8.92ZM251.81,226c14.57,3.63,61.27,10.83,54.33,38.66-6.64,26.68-51.56,12.25-66.12,8.64Z"/><path class="cls-1" d="M316.76,419.1C215.29,444,114.19,384.25,84.11,284.72a207.41,207.41,0,0,0,11.46,31.22A198.18,198.18,0,0,0,326.69,424.29c17-4.58,28.14-8.38,43.24-17.11-4.21-1.76-5.79-2.49-10.12-4.57C344.32,411.58,334.28,414.78,316.76,419.1Z"/><path class="cls-1" d="M487.78,346.35c-6.84-8.38-11-14.36-18.24-22.25-3.21,6.57-6.88,13.38-11,20.14,5.35,6.34,7.35,9,12.32,15.68a176.51,176.51,0,0,1,15.42,24.49c2.63,5.34,5.27,11.43,5.51,17.32a5.16,5.16,0,0,1-.41,2.54.19.19,0,0,0-.05.09s-.05,0-.05,0-.06.06-.08.1-.19.13-.45.28a6,6,0,0,1-1.23.54,23.62,23.62,0,0,1-7.51.94,87.68,87.68,0,0,1-20-3c-14.19-3.63-27.83-8.93-41.36-14.78q-5.76-2.54-11.46-5.19c23.62-17.36,41.06-46.15,52-70.12,38-82.15,18.94-181.22-47.85-244a213.21,213.21,0,0,0-98-52.73c-79.18-19.06-162.4,10.1-213.5,71.47a27.91,27.91,0,1,0,22.1,15.35,190.34,190.34,0,0,1,94.94-63c40-11.76,84.17-9.32,123.19,6a194.85,194.85,0,0,1,58.72,36.38c64.55,57.82,83.14,151.56,47.56,229.28A194.29,194.29,0,0,1,408,369.75a70.78,70.78,0,0,1-10.49,7.91c-14.72-7.25-29.15-15.1-43.39-23.3a27.06,27.06,0,1,0-12.22,25.86c13,6.94,26.13,13.59,39.54,19.84,23.85,11,48.21,21.21,74.13,27.14,17.18,3.61,43.05,7.48,54.83-10.87C523.81,394.25,500.41,363,487.78,346.35Z"/></g></g></svg>