<svg xmlns="http://www.w3.org/2000/svg" viewBox="0 0 2498.39 399.25"><defs><style>.cls-1{fill:#f7941d;}</style></defs><g id="Layer_2" data-name="Layer 2"><g id="Layer_1-2" data-name="Layer 1"><path class="cls-1" d="M642.15,335.87q-21.37-.81-35.72-4.33T583.3,322.2A33.58,33.58,0,0,1,570.72,308a45.47,45.47,0,0,1-3.79-18.94v-1.89q-26-5.42-41.26-25.17t-15.29-51.68a125.8,125.8,0,0,1,7.31-41.94,122.32,122.32,0,0,1,21-37.47,107.85,107.85,0,0,1,33.42-27.06q19.75-10.41,44.64-10.42A82.28,82.28,0,0,1,647,98.85a67.88,67.88,0,0,1,23.81,15.55,70.34,70.34,0,0,1,15.56,24.76q5.54,14.61,5.54,33a129,129,0,0,1-5.68,37.48,122.84,122.84,0,0,1-16.64,34.63,110.86,110.86,0,0,1-26.79,27.19,91.91,91.91,0,0,1-36.12,15.42v.82a12.09,12.09,0,0,0,3.93,9.47,26.56,26.56,0,0,0,10.55,5.41,84.87,84.87,0,0,0,15.29,2.7q8.65.81,18.13,1.36ZM612.39,129.69a43.78,43.78,0,0,0-23.14,6.5,65.11,65.11,0,0,0-18.67,17.31,84.72,84.72,0,0,0-12.44,24.9,95,95,0,0,0-4.47,28.95q0,20.28,8.52,32.87t27.74,12.58a43.76,43.76,0,0,0,23.13-6.49A65.14,65.14,0,0,0,631.73,229a85,85,0,0,0,12.45-24.76,94.85,94.85,0,0,0,4.46-29.08q0-20.29-8.52-32.88T612.39,129.69Z"/><path class="cls-1" d="M844.27,143l-19.22,80.9a90,90,0,0,0-2.16,31,110.61,110.61,0,0,0,6.22,27.73l-36,5.15a133.27,133.27,0,0,1-5.69-13.26,75.79,75.79,0,0,1-17,10,53,53,0,0,1-21.11,4.06q-16,0-25.84-5.82a37.27,37.27,0,0,1-14.74-15.42,51.89,51.89,0,0,1-5.28-22,92.38,92.38,0,0,1,2.84-25.44L724.67,143H765l-18.13,76.3q-1.36,6-2.3,12.18a38.09,38.09,0,0,0-.14,11.5,15.2,15.2,0,0,0,4.2,8.66Q752,255,759.31,255a28.48,28.48,0,0,0,11.49-2.3,40.18,40.18,0,0,0,11.23-8q.54-6.76,1.76-14.21t2.57-13.66L804,143Z"/><path class="cls-1" d="M977.66,223.85a89.79,89.79,0,0,0-2.17,31,110.6,110.6,0,0,0,6.23,27.73l-36,5.15c-1.08-2.17-2.08-4.24-3-6.23s-1.8-4.23-2.7-6.76A72.36,72.36,0,0,1,923.27,285a50.34,50.34,0,0,1-20.56,4.06q-13.53,0-23.13-4.74a43.55,43.55,0,0,1-15.7-12.71,50.91,50.91,0,0,1-8.79-18.67,97.08,97.08,0,0,1,3.92-58,89.54,89.54,0,0,1,18.4-28.82,86,86,0,0,1,27.73-19.34,84.93,84.93,0,0,1,34.64-7c1.62,0,4.46.1,8.52.27s8.7.59,13.94,1.22a135,135,0,0,1,16.5,3.11,86.11,86.11,0,0,1,16.51,6Zm-28.14-49.78q-3.53-.54-6.36-.82c-1.89-.17-4.19-.27-6.9-.27a33.9,33.9,0,0,0-17.18,4.6,49.33,49.33,0,0,0-13.94,12,57.35,57.35,0,0,0-9.33,17.18,61.33,61.33,0,0,0-3.38,20.3q0,13,4.33,20.56t16,7.58A25.39,25.39,0,0,0,924,252.8a41.51,41.51,0,0,0,10.69-8.11q.54-6.76,1.75-14.21c.82-5,1.67-9.51,2.58-13.66Z"/><path class="cls-1" d="M1030.69,149.44q4.59-1.35,10.15-3.11t12.44-3.25c4.6-1,9.74-1.8,15.42-2.43a177.18,177.18,0,0,1,19.35-1q31.92,0,43.83,18.4t4.06,50.33l-18.4,76.84h-40.31l17.85-75.22q1.64-7,2.57-13.66a33,33,0,0,0-.13-11.64,13.72,13.72,0,0,0-5-8.11q-3.91-3.12-12-3.12a81.42,81.42,0,0,0-16,1.63l-26.25,110.12H998Z"/><path class="cls-1" d="M1184.64,107.5l41.94-6.49L1216.3,143h44.91l-8.11,33h-44.65l-11.9,49.78a65.25,65.25,0,0,0-2,11.64,19.11,19.11,0,0,0,1.35,9.33,12.43,12.43,0,0,0,6.09,6.09q4.32,2.17,11.9,2.17a64.23,64.23,0,0,0,12.59-1.22,94,94,0,0,0,12.31-3.38l3,30.84a143,143,0,0,1-17.59,5.14,102,102,0,0,1-22.45,2.17q-18.68,0-29-5.55a32,32,0,0,1-14.62-15.15,47.91,47.91,0,0,1-3.78-22,142,142,0,0,1,3.78-26.25Z"/><path class="cls-1" d="M1402.18,143,1383,223.85a89.79,89.79,0,0,0-2.17,31,111.05,111.05,0,0,0,6.22,27.73l-36,5.15a131,131,0,0,1-5.68-13.26,75.86,75.86,0,0,1-17,10,53,53,0,0,1-21.1,4.06q-16,0-25.84-5.82a37.29,37.29,0,0,1-14.75-15.42,52,52,0,0,1-5.28-22,92,92,0,0,1,2.85-25.44L1282.58,143h40.32l-18.13,76.3q-1.35,6-2.3,12.18a37.75,37.75,0,0,0-.13,11.5,15.12,15.12,0,0,0,4.19,8.66q3.38,3.38,10.69,3.38a28.53,28.53,0,0,0,11.5-2.3,40.32,40.32,0,0,0,11.23-8q.54-6.76,1.75-14.21t2.57-13.66L1361.86,143Z"/><path class="cls-1" d="M1437.62,149.44q4.61-1.35,9.88-3.11t11.9-3.25a145.59,145.59,0,0,1,14.88-2.43,169.59,169.59,0,0,1,19.08-1q13,0,21.51,3.25a48,48,0,0,1,15.56,9.74,134.91,134.91,0,0,1,19.88-9.33,66.54,66.54,0,0,1,23.14-3.66q12.72,0,21.78,3.38a38.83,38.83,0,0,1,15,9.75A38.36,38.36,0,0,1,1618.9,168a65.65,65.65,0,0,1,2.71,19.34,83.37,83.37,0,0,1-.68,10.29,89.44,89.44,0,0,1-2,10.82l-18.39,76.84h-40.32l17.86-75.22c.54-2.52,1.12-5.36,1.76-8.52a47.65,47.65,0,0,0,.94-9.34,24,24,0,0,0-3.51-13.12q-3.52-5.53-13.8-5.55a29.31,29.31,0,0,0-10.83,2,91.35,91.35,0,0,0-9.19,4.2,17.33,17.33,0,0,1,.54,4.06v3.51a83.37,83.37,0,0,1-.68,10.29,91.42,91.42,0,0,1-2,10.82l-18.4,76.84h-40.31l17.85-75.22q.81-3.78,1.76-8.52a47.67,47.67,0,0,0,.95-9.34,24,24,0,0,0-3.52-13.12q-3.51-5.53-13.8-5.55a55.17,55.17,0,0,0-7.3.41c-2,.27-4.33.68-7,1.22L1445.2,285.27h-40.32Z"/><path class="cls-1" d="M1737.14,287.71q-16.23,0-33.28-1.36A234.2,234.2,0,0,1,1673,282l43.3-181.28a257.59,257.59,0,0,1,32.33-4.06q16.9-1.08,31-1.08,16.23,0,28,3.38t19.21,9.06a36.59,36.59,0,0,1,11.09,13.4,37.84,37.84,0,0,1,3.65,16.37,67.75,67.75,0,0,1-1.22,12.45,40.8,40.8,0,0,1-4.87,12.85,48.9,48.9,0,0,1-10,12,64.15,64.15,0,0,1-16.64,10.28q12.18,5.41,17.86,14.75a39,39,0,0,1,5.68,20.69,63.21,63.21,0,0,1-5.14,25,56.24,56.24,0,0,1-16.51,21.38q-11.36,9.33-29.49,14.88T1737.14,287.71Zm-3.79-84.42L1721.72,252a91.28,91.28,0,0,0,11,1.22q6.61.4,12.31.4a106.71,106.71,0,0,0,16.09-1.21,46.75,46.75,0,0,0,14.35-4.47,28.49,28.49,0,0,0,10.41-8.93q4.07-5.69,4.06-14.61a20.6,20.6,0,0,0-1.49-7.57,18.16,18.16,0,0,0-4.73-6.77,25,25,0,0,0-8.53-4.87,37.35,37.35,0,0,0-12.58-1.89Zm7.85-31.66h26.51q16.24,0,24.22-7t8-16.78a16.17,16.17,0,0,0-2.3-8.79,17.08,17.08,0,0,0-6.09-5.82,28.16,28.16,0,0,0-8.65-3.11,52.51,52.51,0,0,0-10-.95q-5.68,0-12.18.41t-9.74.94Z"/><path class="cls-1" d="M1884.33,285.27h-40L1878.11,143h40.31Zm19.48-159.64a24.81,24.81,0,0,1-15.15-5q-6.77-5-6.77-15.29a25.36,25.36,0,0,1,2.3-10.69,28.34,28.34,0,0,1,6.09-8.66,29.32,29.32,0,0,1,8.79-5.81A26.71,26.71,0,0,1,1909.76,78a24.89,24.89,0,0,1,15.16,5q6.75,5,6.76,15.29a25.31,25.31,0,0,1-2.3,10.68,28.27,28.27,0,0,1-6.09,8.66,29.28,29.28,0,0,1-8.79,5.82A26.7,26.7,0,0,1,1903.81,125.63Z"/><path class="cls-1" d="M1954.13,107.5l41.94-6.49L1985.79,143h44.92l-8.12,33h-44.65L1966,225.74a66.16,66.16,0,0,0-2,11.64,19.11,19.11,0,0,0,1.35,9.33,12.43,12.43,0,0,0,6.09,6.09q4.32,2.17,11.91,2.17a64.2,64.2,0,0,0,12.58-1.22,93.15,93.15,0,0,0,12.31-3.38l3,30.84a144,144,0,0,1-17.59,5.14,102.11,102.11,0,0,1-22.46,2.17q-18.67,0-29-5.55a32,32,0,0,1-14.61-15.15,47.91,47.91,0,0,1-3.79-22,141.17,141.17,0,0,1,3.79-26.25Z"/><path class="cls-1" d="M2026.64,228.45a99.77,99.77,0,0,1,6-34.63,84.92,84.92,0,0,1,17-28.41,79.74,79.74,0,0,1,26.92-19.21,86.06,86.06,0,0,1,35.31-7,94,94,0,0,1,21.78,2.3,87.12,87.12,0,0,1,17.46,6.09l-13.8,31.39c-3.61-1.45-7.36-2.75-11.23-3.93a49.77,49.77,0,0,0-14.21-1.76q-20.28,0-31.92,13.67t-11.64,37.2q0,13.8,6,22.32t21.92,8.53a69.78,69.78,0,0,0,15.15-1.63,72.88,72.88,0,0,0,13-4.06l3,32.2a138.22,138.22,0,0,1-16.64,5.28,91.2,91.2,0,0,1-22.06,2.3q-16.77,0-28.41-4.87A53.94,53.94,0,0,1,2041,271.07a49.48,49.48,0,0,1-11-19.35A79.14,79.14,0,0,1,2026.64,228.45Z"/><path class="cls-1" d="M2200.62,289.06q-14.34,0-24.89-4.33a45.91,45.91,0,0,1-17.45-12.18A52.45,52.45,0,0,1,2147.86,254a75.27,75.27,0,0,1-3.52-23.68,104.4,104.4,0,0,1,5.28-32.46,92.85,92.85,0,0,1,15.56-29.23,83.33,83.33,0,0,1,25.16-21.24q14.88-8.25,34.09-8.25a65.75,65.75,0,0,1,24.76,4.33,46,46,0,0,1,17.59,12.18,52.52,52.52,0,0,1,10.41,18.53,75.32,75.32,0,0,1,3.52,23.68,107.2,107.2,0,0,1-5.14,32.46,94,94,0,0,1-15.15,29.23,79.55,79.55,0,0,1-25,21.24Q2220.38,289.06,2200.62,289.06Zm20-115.81a25.21,25.21,0,0,0-15.7,5.15,43.85,43.85,0,0,0-11.36,13,64,64,0,0,0-6.9,17.18,73.92,73.92,0,0,0-2.3,17.73q0,13.8,4.33,21.24t15.69,7.44a25.2,25.2,0,0,0,15.69-5.14,44.19,44.19,0,0,0,11.37-13,64.53,64.53,0,0,0,6.9-17.18,74.35,74.35,0,0,0,2.3-17.72q0-13.81-4.33-21.25T2220.65,173.25Z"/><path class="cls-1" d="M2326.16,285.27h-40L2319.94,143h40.32Zm19.49-159.64a24.84,24.84,0,0,1-15.16-5q-6.76-5-6.76-15.29a25.2,25.2,0,0,1,2.3-10.69,28.34,28.34,0,0,1,6.09-8.66,29.19,29.19,0,0,1,8.79-5.81A26.71,26.71,0,0,1,2351.6,78a24.84,24.84,0,0,1,15.15,5q6.77,5,6.76,15.29a25.31,25.31,0,0,1-2.3,10.68,28.24,28.24,0,0,1-6.08,8.66,29.2,29.2,0,0,1-8.8,5.82A26.69,26.69,0,0,1,2345.65,125.63Z"/><path class="cls-1" d="M2390,149.44q4.59-1.35,10.14-3.11t12.45-3.25c4.6-1,9.74-1.8,15.42-2.43a177,177,0,0,1,19.35-1q31.92,0,43.83,18.4t4.06,50.33l-18.4,76.84h-40.31l17.85-75.22q1.64-7,2.57-13.66a33.27,33.27,0,0,0-.13-11.64,13.77,13.77,0,0,0-5-8.11q-3.93-3.12-12-3.12a81.42,81.42,0,0,0-16,1.63l-26.25,110.12h-40.31Z"/><path class="cls-1" d="M105.16,184.4a1.31,1.31,0,0,0,0-1.86c-28.62-27.34-56.72-55.8-79-88.59-6.33-9.77-20.2-31.8-14.75-43.1,2.86-4.9,9.37-5.57,14.83-5.66,18.53.81,40.24,7.59,66.25,19.37a92.39,92.39,0,0,1,10.2-11C70.42,40,25.47,24.71,6.81,40.07-10.33,55.26,9,84.25,19.36,98.65,31.3,114.94,44.94,129.73,59.15,144s29,27.55,44.2,40.53A1.32,1.32,0,0,0,105.16,184.4Z"/><path class="cls-1" d="M194.23,233.65c-1,2.51-3.57,6.28-9.35,4.85.2.29-14.37-3.58-14.37-3.58l-10.59,23.23,26.55,6.62c4.94,1.24,9.78,2.54,14.55,3.76l-8.45,33.9L213,307.52,221.32,274c5.57,1.51,11,2.91,16.26,4.22l-8.33,33.39,20.4,5.09,8.45-33.84c34.79,6.58,61,3.92,72-27.55,8.88-25.34-.44-39.95-18.75-49.49,13.34-3.07,23.38-11.84,26.06-30,3.7-24.74-15.14-38.05-40.91-46.92l8.36-33.52-20.4-5.09-8.14,32.64c-5.37-1.34-10.88-2.6-16.35-3.85l8.19-32.85-20.39-5.09-8.36,33.51c-4.44-1-8.8-2-13-3.06l0-.1-28.14-7-5.43,21.79s15.14,3.47,14.82,3.69c8.27,2.06,9.76,7.53,9.51,11.87L207.61,180a15.23,15.23,0,0,1,2.12.68l-2.16-.54Zm60.21-90.46c11.52,2.88,48.62,8.23,42.63,32.28-5.76,23.05-41.27,11.34-52.79,8.47ZM239.16,204.5c13.83,3.45,58.19,10.29,51.59,36.71-6.3,25.34-49,11.64-62.8,8.21Z"/><path class="cls-1" d="M300.84,387.94c-96.37,23.66-192.39-33.11-221-127.64A196.25,196.25,0,0,0,90.77,290a188.2,188.2,0,0,0,219.5,102.9c16.18-4.35,26.72-8,41.06-16.25-4-1.67-5.5-2.36-9.61-4.34C327,380.79,317.48,383.83,300.84,387.94Z"/><path class="cls-1" d="M463.26,318.84c-6.49-8-10.48-13.64-17.32-21.13-3.05,6.24-6.54,12.71-10.45,19.12,5.08,6,7,8.57,11.7,14.9A166.61,166.61,0,0,1,461.84,355c2.5,5.07,5,10.85,5.23,16.44a4.85,4.85,0,0,1-.39,2.41.18.18,0,0,0,0,.09s-.05,0-.06,0-.05.06-.07.09a4,4,0,0,1-.43.28,5.82,5.82,0,0,1-1.17.5,22.13,22.13,0,0,1-7.13.9,83.83,83.83,0,0,1-19-2.88c-13.48-3.45-26.43-8.48-39.28-14q-5.47-2.4-10.89-4.92c22.44-16.49,39-43.84,49.41-66.6,36.06-78,18-172.12-45.45-231.73a202.46,202.46,0,0,0-93.1-50.08c-75.2-18.1-154.23,9.6-202.76,67.88a26.5,26.5,0,1,0,21,14.57,180.83,180.83,0,0,1,90.17-59.8c38-11.17,79.93-8.85,117,5.66a185.24,185.24,0,0,1,55.76,34.56c61.31,54.91,79,143.94,45.17,217.75a184.27,184.27,0,0,1-38.3,54.95,66.36,66.36,0,0,1-10,7.52c-14-6.9-27.68-14.34-41.2-22.14A25.7,25.7,0,1,0,324.72,351c12.33,6.58,24.82,12.9,37.55,18.84,22.66,10.42,45.8,20.14,70.41,25.78,16.32,3.42,40.89,7.1,52.07-10.33C497.48,364.33,475.26,334.66,463.26,318.84Z"/></g></g></svg>