<svg xmlns="http://www.w3.org/2000/svg" viewBox="0 0 1653.01 427.41"><defs><style>.cls-1{fill:#f7941d;}</style></defs><g id="Layer_2" data-name="Layer 2"><g id="Layer_1-2" data-name="Layer 1"><path class="cls-1" d="M131.77,242.43q-21.38-.81-35.72-4.33t-23.13-9.33a33.67,33.67,0,0,1-12.58-14.21,45.43,45.43,0,0,1-3.79-18.94v-1.89q-26-5.41-41.26-25.16T0,116.89A126,126,0,0,1,7.31,75a122.37,122.37,0,0,1,21-37.48,107.68,107.68,0,0,1,33.42-27Q81.44,0,106.33,0a82.48,82.48,0,0,1,30.31,5.41A67.91,67.91,0,0,1,160.45,21,70.25,70.25,0,0,1,176,45.73q5.53,14.61,5.54,33a128.9,128.9,0,0,1-5.68,37.47,122.71,122.71,0,0,1-16.64,34.63A111,111,0,0,1,132.45,178a92.31,92.31,0,0,1-36.13,15.42v.81a12.08,12.08,0,0,0,3.93,9.47,26.43,26.43,0,0,0,10.55,5.41,84.82,84.82,0,0,0,15.29,2.71q8.66.81,18.13,1.35ZM102,36.26a43.77,43.77,0,0,0-23.14,6.49A65.14,65.14,0,0,0,60.2,60.07,84.54,84.54,0,0,0,47.76,85a95,95,0,0,0-4.47,29q0,20.29,8.52,32.88t27.74,12.58a43.77,43.77,0,0,0,23.13-6.5,65.25,65.25,0,0,0,18.67-17.31A85.29,85.29,0,0,0,133.8,110.8a94.92,94.92,0,0,0,4.46-29.09q0-20.29-8.52-32.87T102,36.26Z"/><path class="cls-1" d="M333.89,49.52l-19.22,80.9a90,90,0,0,0-2.16,31,110.82,110.82,0,0,0,6.22,27.73l-36,5.14A130,130,0,0,1,277.07,181,75.71,75.71,0,0,1,260,191a53,53,0,0,1-21.11,4.06q-16,0-25.83-5.81a37.26,37.26,0,0,1-14.75-15.43,51.85,51.85,0,0,1-5.28-22.05,92.35,92.35,0,0,1,2.84-25.43l18.4-76.84h40.32l-18.13,76.3q-1.36,6-2.3,12.17a38.09,38.09,0,0,0-.14,11.5,15.13,15.13,0,0,0,4.2,8.66q3.38,3.39,10.69,3.38a28.39,28.39,0,0,0,11.5-2.3,40.08,40.08,0,0,0,11.22-8q.54-6.76,1.76-14.2T276,123.38l17.59-73.86Z"/><path class="cls-1" d="M467.28,130.42a89.79,89.79,0,0,0-2.17,31,111.25,111.25,0,0,0,6.23,27.73l-36,5.14c-1.08-2.16-2.08-4.23-3-6.22s-1.8-4.24-2.7-6.77a72.06,72.06,0,0,1-16.78,10.29,50.47,50.47,0,0,1-20.56,4.05q-13.53,0-23.13-4.73a43.47,43.47,0,0,1-15.7-12.72,50.91,50.91,0,0,1-8.79-18.67A92.53,92.53,0,0,1,342,136.64a93.51,93.51,0,0,1,6.63-35.18A89.49,89.49,0,0,1,367,72.65,86,86,0,0,1,394.76,53.3a84.93,84.93,0,0,1,34.64-7q2.43,0,8.52.27t13.94,1.22a135,135,0,0,1,16.5,3.11,86.08,86.08,0,0,1,16.51,6ZM439.14,80.63q-3.52-.54-6.36-.81t-6.9-.27a33.8,33.8,0,0,0-17.18,4.6,49.33,49.33,0,0,0-13.94,12,57.23,57.23,0,0,0-9.33,17.18,61.28,61.28,0,0,0-3.38,20.29q0,13,4.33,20.57t16,7.57a25.39,25.39,0,0,0,11.23-2.43,41.57,41.57,0,0,0,10.69-8.12q.54-6.76,1.76-14.2t2.57-13.67Z"/><path class="cls-1" d="M520.31,56q4.59-1.35,10.15-3.11t12.44-3.25q6.9-1.49,15.42-2.44a179.91,179.91,0,0,1,19.35-.94q31.92,0,43.83,18.4T625.56,115l-18.4,76.85H566.85l17.86-75.22q1.62-7,2.57-13.67a33.19,33.19,0,0,0-.14-11.63,13.78,13.78,0,0,0-5-8.12q-3.93-3.11-12-3.11a81.39,81.39,0,0,0-16,1.62L527.89,191.84H487.57Z"/><path class="cls-1" d="M674.26,14.07,716.2,7.58,705.92,49.52h44.91l-8.11,33H698.07l-11.9,49.78a65.15,65.15,0,0,0-2,11.63,19.13,19.13,0,0,0,1.35,9.34,12.43,12.43,0,0,0,6.09,6.09q4.32,2.16,11.9,2.16a63.47,63.47,0,0,0,12.59-1.22,92.46,92.46,0,0,0,12.31-3.38l3,30.85a145.09,145.09,0,0,1-17.58,5.14,102.16,102.16,0,0,1-22.46,2.16q-18.67,0-28.95-5.54t-14.61-15.16a47.78,47.78,0,0,1-3.79-22,141.19,141.19,0,0,1,3.79-26.24Z"/><path class="cls-1" d="M891.8,49.52l-19.21,80.9a89.79,89.79,0,0,0-2.17,31,111.26,111.26,0,0,0,6.22,27.73l-36,5.14A130,130,0,0,1,835,181a75.49,75.49,0,0,1-17.05,10,53,53,0,0,1-21.1,4.06q-16,0-25.84-5.81a37.26,37.26,0,0,1-14.75-15.43A51.85,51.85,0,0,1,751,151.79a91.59,91.59,0,0,1,2.84-25.43L772.2,49.52h40.32l-18.13,76.3q-1.35,6-2.3,12.17a37.75,37.75,0,0,0-.13,11.5,15.06,15.06,0,0,0,4.19,8.66q3.38,3.39,10.69,3.38a28.36,28.36,0,0,0,11.5-2.3,40.11,40.11,0,0,0,11.23-8q.54-6.76,1.75-14.2t2.57-13.67l17.59-73.86Z"/><path class="cls-1" d="M927.24,56q4.6-1.35,9.88-3.11A122.47,122.47,0,0,1,949,49.65a145.44,145.44,0,0,1,14.88-2.44A172.19,172.19,0,0,1,983,46.27q13,0,21.51,3.25a47.94,47.94,0,0,1,15.56,9.74,136,136,0,0,1,19.88-9.34,66.79,66.79,0,0,1,23.14-3.65q12.72,0,21.78,3.38a38.93,38.93,0,0,1,15,9.74,38.36,38.36,0,0,1,8.65,15.15,65.39,65.39,0,0,1,2.71,19.35,83.21,83.21,0,0,1-.68,10.28,89.07,89.07,0,0,1-2,10.82l-18.39,76.85h-40.32l17.86-75.22c.54-2.53,1.12-5.37,1.76-8.53a47.48,47.48,0,0,0,.94-9.33,24,24,0,0,0-3.51-13.12q-3.52-5.55-13.8-5.55a29.31,29.31,0,0,0-10.83,2,89.23,89.23,0,0,0-9.19,4.19,16.88,16.88,0,0,1,.54,4.06v3.52a83.21,83.21,0,0,1-.68,10.28,91,91,0,0,1-2,10.82l-18.4,76.85H972.16L990,116.62c.55-2.53,1.13-5.37,1.76-8.53a47.5,47.5,0,0,0,1-9.33,23.94,23.94,0,0,0-3.52-13.12q-3.51-5.55-13.8-5.55a53.61,53.61,0,0,0-7.3.41c-2,.27-4.33.67-7,1.21L934.82,191.84H894.5Z"/><path class="cls-1" d="M294.91,426.06q-16.23,0-33.28-1.35a235.89,235.89,0,0,1-30.85-4.33l43.3-181.28A255.75,255.75,0,0,1,306.41,235q16.9-1.08,31-1.09,16.23,0,28,3.39t19.21,9.06a36.51,36.51,0,0,1,11.09,13.4,37.8,37.8,0,0,1,3.65,16.36,66.89,66.89,0,0,1-1.22,12.45,40.62,40.62,0,0,1-4.87,12.85,48.72,48.72,0,0,1-10,12,64.16,64.16,0,0,1-16.64,10.29q12.18,5.41,17.86,14.74a39,39,0,0,1,5.68,20.7,63.25,63.25,0,0,1-5.14,25,56.21,56.21,0,0,1-16.5,21.37Q357.14,415,339,420.51T294.91,426.06Zm-3.79-84.42-11.63,48.71a91.54,91.54,0,0,0,11,1.21q6.62.4,12.31.41a106.71,106.71,0,0,0,16.09-1.22,46.93,46.93,0,0,0,14.35-4.46,28.59,28.59,0,0,0,10.41-8.93q4.06-5.69,4.06-14.61a20.65,20.65,0,0,0-1.49-7.58,18.12,18.12,0,0,0-4.73-6.76,24.83,24.83,0,0,0-8.53-4.87,37.34,37.34,0,0,0-12.58-1.9ZM299,310h26.51q16.25,0,24.22-7t8-16.77a16.23,16.23,0,0,0-2.3-8.8,17.16,17.16,0,0,0-6.09-5.82,28.33,28.33,0,0,0-8.65-3.11,52.51,52.51,0,0,0-10-.94q-5.69,0-12.18.4t-9.74.95Z"/><path class="cls-1" d="M442.1,423.63H402.05l33.83-142.32h40.31ZM461.58,264a24.82,24.82,0,0,1-15.15-5q-6.76-5-6.77-15.28A25.36,25.36,0,0,1,442,233a28.1,28.1,0,0,1,6.09-8.66,29.35,29.35,0,0,1,8.79-5.82,26.7,26.7,0,0,1,10.69-2.16,24.94,24.94,0,0,1,15.16,5q6.75,5,6.76,15.29a25.36,25.36,0,0,1-2.3,10.69,28.39,28.39,0,0,1-6.09,8.66,29.44,29.44,0,0,1-8.79,5.81A26.54,26.54,0,0,1,461.58,264Z"/><path class="cls-1" d="M511.9,245.86l41.94-6.49-10.28,41.94h44.92l-8.12,33H535.71l-11.9,49.78a66,66,0,0,0-2,11.64,19.11,19.11,0,0,0,1.35,9.33,12.43,12.43,0,0,0,6.09,6.09q4.32,2.16,11.91,2.16a64.2,64.2,0,0,0,12.58-1.21A93.22,93.22,0,0,0,566,388.72l3,30.85a144,144,0,0,1-17.59,5.14A102.16,102.16,0,0,1,529,426.87q-18.68,0-29-5.54t-14.61-15.15a48,48,0,0,1-3.79-22.06,141.19,141.19,0,0,1,3.79-26.24Z"/><path class="cls-1" d="M584.41,366.81a99.83,99.83,0,0,1,6-34.64,85.12,85.12,0,0,1,17-28.41,79.87,79.87,0,0,1,26.92-19.21,86.06,86.06,0,0,1,35.31-7,94,94,0,0,1,21.78,2.3,85.89,85.89,0,0,1,17.46,6.09l-13.8,31.38q-5.42-2.16-11.23-3.92a49.77,49.77,0,0,0-14.21-1.76q-20.28,0-31.92,13.66t-11.64,37.21q0,13.8,5.95,22.32T654,393.32a69.78,69.78,0,0,0,15.15-1.62,73.7,73.7,0,0,0,13-4.06l3,32.2a140,140,0,0,1-16.64,5.28,91.76,91.76,0,0,1-22.06,2.29q-16.77,0-28.41-4.87a53.69,53.69,0,0,1-19.21-13.12,49.52,49.52,0,0,1-11-19.34A79.24,79.24,0,0,1,584.41,366.81Z"/><path class="cls-1" d="M758.39,427.41q-14.34,0-24.89-4.32a46.13,46.13,0,0,1-17.45-12.18,52.5,52.5,0,0,1-10.42-18.54,75.21,75.21,0,0,1-3.52-23.67,104.46,104.46,0,0,1,5.28-32.47A92.91,92.91,0,0,1,723,307a83,83,0,0,1,25.16-21.24q14.88-8.25,34.09-8.25,14.07,0,24.76,4.33A45.9,45.9,0,0,1,824.55,294,52.56,52.56,0,0,1,835,312.56a75.21,75.21,0,0,1,3.52,23.67,107.26,107.26,0,0,1-5.14,32.47,94,94,0,0,1-15.15,29.22,79.55,79.55,0,0,1-25,21.24Q778.15,427.41,758.39,427.41Zm20-115.8a25.27,25.27,0,0,0-15.7,5.14,44,44,0,0,0-11.36,13,63.87,63.87,0,0,0-6.9,17.18,73.78,73.78,0,0,0-2.3,17.72q0,13.8,4.33,21.24t15.69,7.44a25.2,25.2,0,0,0,15.69-5.14,43.94,43.94,0,0,0,11.37-13,64.39,64.39,0,0,0,6.9-17.18,74.29,74.29,0,0,0,2.3-17.72q0-13.8-4.33-21.24T778.42,311.61Z"/><path class="cls-1" d="M883.93,423.63h-40l33.82-142.32H918ZM903.42,264a24.85,24.85,0,0,1-15.16-5q-6.76-5-6.76-15.28A25.2,25.2,0,0,1,883.8,233a28.1,28.1,0,0,1,6.09-8.66,29.22,29.22,0,0,1,8.79-5.82,26.7,26.7,0,0,1,10.69-2.16,24.89,24.89,0,0,1,15.15,5q6.76,5,6.76,15.29a25.36,25.36,0,0,1-2.3,10.69A28.36,28.36,0,0,1,922.9,256a29.36,29.36,0,0,1-8.8,5.81A26.52,26.52,0,0,1,903.42,264Z"/><path class="cls-1" d="M947.79,287.8q4.59-1.35,10.14-3.11t12.45-3.25A154.83,154.83,0,0,1,985.8,279a177,177,0,0,1,19.35-.95q31.92,0,43.83,18.4t4.06,50.32l-18.4,76.85H994.33l17.85-75.22q1.64-7,2.57-13.67a33.21,33.21,0,0,0-.13-11.63,13.74,13.74,0,0,0-5-8.12q-3.93-3.11-12-3.11a81.39,81.39,0,0,0-16,1.62L955.36,423.63H915.05Z"/><path class="cls-1" d="M1252.78,203.14a1.37,1.37,0,0,0,0-1.94c-29.87-28.54-59.21-58.25-82.46-92.48-6.61-10.2-21.08-33.2-15.39-45,3-5.11,9.77-5.82,15.47-5.91,19.35.85,42,7.93,69.16,20.22a97.29,97.29,0,0,1,10.65-11.45c-33.64-14.24-80.56-30.15-100-14.12-17.89,15.86,2.33,46.12,13.09,61.15,12.47,17,26.71,32.45,41.54,47.32s30.3,28.75,46.14,42.3A1.38,1.38,0,0,0,1252.78,203.14Z"/><path class="cls-1" d="M1345.76,254.55c-1.06,2.62-3.73,6.55-9.76,5.06.21.31-15-3.74-15-3.74l-11,24.26,27.72,6.91c5.16,1.29,10.21,2.64,15.18,3.92L1344,326.35l21.28,5.31,8.73-35c5.81,1.58,11.45,3,17,4.41l-8.7,34.85,21.3,5.31,8.82-35.33c36.32,6.88,63.63,4.1,75.13-28.75,9.26-26.45-.46-41.71-19.57-51.66,13.92-3.21,24.4-12.36,27.2-31.27,3.86-25.84-15.81-39.72-42.7-49l8.72-35-21.3-5.31L1431.42,139c-5.6-1.39-11.35-2.71-17.07-4l8.55-34.3-21.28-5.31-8.73,35c-4.64-1.05-9.19-2.1-13.61-3.19l0-.11-29.38-7.34-5.66,22.75s15.8,3.62,15.47,3.85c8.62,2.15,10.18,7.86,9.92,12.39l-9.94,39.86a17.14,17.14,0,0,1,2.22.71l-2.25-.56Zm62.85-94.42c12,3,50.75,8.59,44.5,33.68-6,24.07-43.08,11.84-55.1,8.84Zm-15.95,64c14.43,3.6,60.74,10.74,53.86,38.32-6.59,26.45-51.12,12.16-65.56,8.57Z"/><path class="cls-1" d="M1457.05,415.6c-100.6,24.7-200.83-34.55-230.66-133.23a206.52,206.52,0,0,0,11.36,31,196.47,196.47,0,0,0,229.14,107.41c16.89-4.53,27.89-8.31,42.86-17-4.16-1.75-5.74-2.47-10-4.53C1484.36,408.14,1474.42,411.32,1457.05,415.6Z"/><path class="cls-1" d="M1626.59,343.47c-6.78-8.3-10.94-14.23-18.08-22.05-3.18,6.51-6.82,13.27-10.91,20,5.3,6.29,7.29,8.95,12.22,15.55a175.38,175.38,0,0,1,15.29,24.28c2.6,5.3,5.22,11.33,5.46,17.16a5.2,5.2,0,0,1-.4,2.52.14.14,0,0,0-.05.09s0,0-.06,0-.06.06-.08.09a3.56,3.56,0,0,1-.45.29,5.61,5.61,0,0,1-1.21.53,23.53,23.53,0,0,1-7.45.93,86.67,86.67,0,0,1-19.82-3c-14.07-3.6-27.59-8.84-41-14.65q-5.71-2.5-11.36-5.14c23.42-17.21,40.71-45.76,51.57-69.52,37.65-81.45,18.78-179.67-47.44-241.89a211.35,211.35,0,0,0-97.19-52.28c-78.5-18.9-161,10-211.65,70.86a27.66,27.66,0,1,0,21.9,15.21A188.76,188.76,0,0,1,1360,40c39.68-11.66,83.44-9.25,122.13,5.9A193.39,193.39,0,0,1,1540.34,82c64,57.33,82.43,150.26,47.15,227.31a192.37,192.37,0,0,1-40,57.36,69.34,69.34,0,0,1-10.41,7.85c-14.59-7.2-28.89-15-43-23.11A26.82,26.82,0,1,0,1482,377.06c12.87,6.87,25.91,13.46,39.2,19.66,23.65,10.88,47.81,21,73.5,26.91,17,3.58,42.68,7.42,54.36-10.78C1662.31,391,1639.12,360,1626.59,343.47Z"/></g></g></svg>