<svg xmlns="http://www.w3.org/2000/svg" viewBox="0 0 768.43 627.95"><defs><style>.cls-1{fill:#f7941d;}</style></defs><g id="Layer_2" data-name="Layer 2"><g id="Layer_1-2" data-name="Layer 1"><path class="cls-1" d="M165.41,290a2.08,2.08,0,0,0-.09-2.93c-45-43-89.21-87.76-124.24-139.34-10-15.36-31.76-50-23.2-67.78,4.5-7.71,14.73-8.76,23.32-8.9C70.35,72.35,104.51,83,145.41,101.54a147.67,147.67,0,0,1,16-17.26C110.77,62.83,40.06,38.86,10.72,63c-27,23.9,3.5,69.49,19.72,92.13C49.23,180.79,70.69,204,93,226.44c22.34,22.22,45.66,43.33,69.53,63.74A2.08,2.08,0,0,0,165.41,290Z"/><path class="cls-1" d="M305.49,367.49c-1.59,3.95-5.62,9.88-14.71,7.63.32.46-22.6-5.63-22.6-5.63L251.52,406l41.77,10.42c7.77,1.94,15.38,4,22.88,5.9l-13.28,53.33,32.06,8,13.15-52.76c8.76,2.37,17.26,4.57,25.58,6.63l-13.11,52.52,32.09,8L406,444.84c54.72,10.35,95.88,6.18,113.2-43.32,14-39.86-.7-62.85-29.49-77.84,21-4.84,36.77-18.63,41-47.12,5.82-38.93-23.81-59.85-64.34-73.81L479.45,150l-32.1-8-12.79,51.33c-8.44-2.1-17.11-4.08-25.72-6.05l12.89-51.67-32.07-8L376.5,180.35c-7-1.59-13.84-3.17-20.49-4.82l0-.16-44.26-11.06-8.54,34.28s23.82,5.46,23.31,5.8c13,3.24,15.35,11.85,15,18.66l-15,60.07a27.45,27.45,0,0,1,3.33,1.07c-1.07-.26-2.21-.56-3.39-.84ZM400.2,225.22c18.11,4.52,76.46,12.94,67,50.76-9.05,36.26-64.91,17.84-83,13.32Zm-24.05,96.42c21.76,5.43,91.53,16.18,81.16,57.75-9.92,39.85-77,18.31-98.78,12.9Z"/><path class="cls-1" d="M473.17,610.16C321.6,647.37,170.58,558.09,125.64,409.42a310.28,310.28,0,0,0,17.12,46.64A296,296,0,0,0,488,617.91c25.46-6.84,42-12.53,64.59-25.57-6.28-2.63-8.65-3.71-15.11-6.82C514.33,598.92,499.35,603.7,473.17,610.16Z"/><path class="cls-1" d="M728.63,501.48C718.42,489,712.15,480,701.39,468.25c-4.8,9.81-10.28,20-16.44,30.07,8,9.48,11,13.48,18.41,23.44,8.48,11.61,16.65,23.83,23,36.58,3.93,8,7.86,17.07,8.23,25.86A8,8,0,0,1,734,588a.22.22,0,0,0-.08.13c0,.06-.07,0-.08.07s-.08.08-.11.14-.29.2-.68.43a10,10,0,0,1-1.83.8A35.21,35.21,0,0,1,720,591c-10-.13-19.83-2-29.87-4.53-21.2-5.42-41.58-13.33-61.79-22.08q-8.61-3.76-17.12-7.74c35.29-25.94,61.34-68.94,77.71-104.74,56.72-122.73,28.29-270.72-71.49-364.48A318.54,318.54,0,0,0,471,8.63C352.75-19.84,228.45,23.73,152.12,115.4a41.3,41.3,0,0,0-41.5,22.36c-10.24,20.35-1.86,45.26,18.72,55.63s45.59,2.27,55.83-18.09a41,41,0,0,0,0-37A284.25,284.25,0,0,1,327,44.27c59.78-17.57,125.72-13.93,184,8.9a291.38,291.38,0,0,1,87.7,54.34c96.44,86.38,124.2,226.4,71.05,342.5a289.91,289.91,0,0,1-60.25,86.42c-.85.85-9,8-15.67,11.82-22-10.84-43.54-22.55-64.81-34.81a40.42,40.42,0,1,0-18.26,38.64c19.39,10.36,39,20.29,59.07,29.63,35.63,16.39,72,31.69,110.74,40.55,25.66,5.39,64.31,11.17,81.89-16.25C782.46,573,747.51,526.37,728.63,501.48Z"/></g></g></svg>