<svg xmlns="http://www.w3.org/2000/svg" viewBox="0 0 2478.82 399.25"><defs><style>.cls-1{fill:#f7941d;}</style></defs><g id="Layer_2" data-name="Layer 2"><g id="Layer_1-2" data-name="Layer 1"><path class="cls-1" d="M131.77,335.87q-21.38-.81-35.72-4.33T72.92,322.2A33.65,33.65,0,0,1,60.34,308a45.47,45.47,0,0,1-3.79-18.94v-1.89q-26-5.42-41.26-25.17T0,210.32a126,126,0,0,1,7.31-41.94,122.32,122.32,0,0,1,21-37.47,107.85,107.85,0,0,1,33.42-27.06q19.75-10.41,44.64-10.42a82.28,82.28,0,0,1,30.31,5.42,67.88,67.88,0,0,1,23.81,15.55A70.34,70.34,0,0,1,176,139.16q5.53,14.61,5.54,33a129,129,0,0,1-5.68,37.48,122.84,122.84,0,0,1-16.64,34.63,111,111,0,0,1-26.78,27.19,92,92,0,0,1-36.13,15.42v.82a12.09,12.09,0,0,0,3.93,9.47,26.56,26.56,0,0,0,10.55,5.41,84.87,84.87,0,0,0,15.29,2.7q8.66.81,18.13,1.36ZM102,129.69a43.78,43.78,0,0,0-23.14,6.5A65.11,65.11,0,0,0,60.2,153.5a84.72,84.72,0,0,0-12.44,24.9,95,95,0,0,0-4.47,28.95q0,20.28,8.52,32.87T79.55,252.8a43.76,43.76,0,0,0,23.13-6.49A65.14,65.14,0,0,0,121.35,229a85,85,0,0,0,12.45-24.76,94.85,94.85,0,0,0,4.46-29.08q0-20.29-8.52-32.88T102,129.69Z"/><path class="cls-1" d="M333.89,143l-19.22,80.9a90,90,0,0,0-2.16,31,110.61,110.61,0,0,0,6.22,27.73l-36,5.15a131,131,0,0,1-5.68-13.26,76.08,76.08,0,0,1-17.05,10,53,53,0,0,1-21.11,4.06q-16,0-25.83-5.82a37.29,37.29,0,0,1-14.75-15.42,51.89,51.89,0,0,1-5.28-22,92.38,92.38,0,0,1,2.84-25.44L214.29,143h40.32l-18.13,76.3q-1.36,6-2.3,12.18a38.09,38.09,0,0,0-.14,11.5,15.2,15.2,0,0,0,4.2,8.66q3.38,3.38,10.69,3.38a28.56,28.56,0,0,0,11.5-2.3,40.29,40.29,0,0,0,11.22-8q.54-6.76,1.76-14.21T276,216.82L293.57,143Z"/><path class="cls-1" d="M467.28,223.85a89.79,89.79,0,0,0-2.17,31,111,111,0,0,0,6.23,27.73l-36,5.15c-1.08-2.17-2.08-4.24-3-6.23s-1.8-4.23-2.7-6.76A72.36,72.36,0,0,1,412.89,285a50.3,50.3,0,0,1-20.56,4.06q-13.53,0-23.13-4.74a43.55,43.55,0,0,1-15.7-12.71,50.91,50.91,0,0,1-8.79-18.67,97.08,97.08,0,0,1,3.92-58A89.54,89.54,0,0,1,367,166.08a86,86,0,0,1,27.73-19.34,84.93,84.93,0,0,1,34.64-7c1.62,0,4.46.1,8.52.27s8.7.59,13.94,1.22a135,135,0,0,1,16.5,3.11,86.11,86.11,0,0,1,16.51,6Zm-28.14-49.78q-3.52-.54-6.36-.82c-1.89-.17-4.19-.27-6.9-.27a33.9,33.9,0,0,0-17.18,4.6,49.33,49.33,0,0,0-13.94,12,57.35,57.35,0,0,0-9.33,17.18,61.33,61.33,0,0,0-3.38,20.3q0,13,4.33,20.56t16,7.58a25.39,25.39,0,0,0,11.23-2.44,41.51,41.51,0,0,0,10.69-8.11q.54-6.76,1.76-14.21t2.57-13.66Z"/><path class="cls-1" d="M520.31,149.44q4.59-1.35,10.15-3.11t12.44-3.25c4.6-1,9.74-1.8,15.42-2.43a177.18,177.18,0,0,1,19.35-1q31.92,0,43.83,18.4t4.06,50.33l-18.4,76.84H566.85l17.86-75.22q1.62-7,2.57-13.66a33.24,33.24,0,0,0-.14-11.64,13.75,13.75,0,0,0-5-8.11q-3.93-3.12-12-3.12a81.42,81.42,0,0,0-16,1.63L527.89,285.27H487.57Z"/><path class="cls-1" d="M674.26,107.5,716.2,101,705.92,143h44.91l-8.11,33H698.07l-11.9,49.78a65.25,65.25,0,0,0-2,11.64,19.11,19.11,0,0,0,1.35,9.33,12.43,12.43,0,0,0,6.09,6.09q4.32,2.17,11.9,2.17a64.23,64.23,0,0,0,12.59-1.22,94,94,0,0,0,12.31-3.38l3,30.84a143.31,143.31,0,0,1-17.58,5.14,102.11,102.11,0,0,1-22.46,2.17q-18.67,0-28.95-5.55a32,32,0,0,1-14.61-15.15,47.78,47.78,0,0,1-3.79-22,141.17,141.17,0,0,1,3.79-26.25Z"/><path class="cls-1" d="M891.8,143l-19.21,80.9a89.79,89.79,0,0,0-2.17,31,111.05,111.05,0,0,0,6.22,27.73l-36,5.15A131,131,0,0,1,835,274.45a75.86,75.86,0,0,1-17.05,10,53,53,0,0,1-21.1,4.06q-16,0-25.84-5.82a37.29,37.29,0,0,1-14.75-15.42,51.88,51.88,0,0,1-5.27-22,91.62,91.62,0,0,1,2.84-25.44L772.2,143h40.32l-18.13,76.3q-1.35,6-2.3,12.18a37.75,37.75,0,0,0-.13,11.5,15.12,15.12,0,0,0,4.19,8.66q3.38,3.38,10.69,3.38a28.53,28.53,0,0,0,11.5-2.3,40.32,40.32,0,0,0,11.23-8q.54-6.76,1.75-14.21t2.57-13.66L851.48,143Z"/><path class="cls-1" d="M927.24,149.44q4.6-1.35,9.88-3.11t11.9-3.25a145.59,145.59,0,0,1,14.88-2.43,169.59,169.59,0,0,1,19.08-1q13,0,21.51,3.25a47.94,47.94,0,0,1,15.56,9.74,134.91,134.91,0,0,1,19.88-9.33,66.54,66.54,0,0,1,23.14-3.66q12.72,0,21.78,3.38a38.83,38.83,0,0,1,15,9.75,38.36,38.36,0,0,1,8.65,15.15,65.32,65.32,0,0,1,2.71,19.34,83.37,83.37,0,0,1-.68,10.29,89.44,89.44,0,0,1-2,10.82l-18.39,76.84h-40.32l17.86-75.22c.54-2.52,1.12-5.36,1.76-8.52a47.65,47.65,0,0,0,.94-9.34,24,24,0,0,0-3.51-13.12q-3.52-5.53-13.8-5.55a29.31,29.31,0,0,0-10.83,2,91.35,91.35,0,0,0-9.19,4.2,16.82,16.82,0,0,1,.54,4.06v3.51a83.37,83.37,0,0,1-.68,10.29,91.42,91.42,0,0,1-2,10.82l-18.4,76.84H972.16L990,210.05c.55-2.52,1.13-5.36,1.76-8.52a47.67,47.67,0,0,0,1-9.34,24,24,0,0,0-3.52-13.12q-3.51-5.53-13.8-5.55a55.28,55.28,0,0,0-7.3.41c-2,.27-4.33.68-7,1.22L934.82,285.27H894.5Z"/><path class="cls-1" d="M1226.76,287.71q-16.23,0-33.28-1.36a233.79,233.79,0,0,1-30.84-4.33l43.29-181.28a257.59,257.59,0,0,1,32.33-4.06q16.9-1.08,31-1.08,16.23,0,28,3.38t19.21,9.06a36.59,36.59,0,0,1,11.09,13.4,37.84,37.84,0,0,1,3.65,16.37,66.89,66.89,0,0,1-1.22,12.45,40.8,40.8,0,0,1-4.87,12.85,48.9,48.9,0,0,1-10,12,64.15,64.15,0,0,1-16.64,10.28q12.18,5.41,17.86,14.75a39,39,0,0,1,5.68,20.69,63.21,63.21,0,0,1-5.14,25,56.31,56.31,0,0,1-16.5,21.38q-11.37,9.33-29.5,14.88T1226.76,287.71ZM1223,203.29,1211.34,252a91.52,91.52,0,0,0,11,1.22q6.62.4,12.31.4a106.94,106.94,0,0,0,16.1-1.21,46.69,46.69,0,0,0,14.34-4.47,28.49,28.49,0,0,0,10.41-8.93q4.07-5.69,4.06-14.61a20.6,20.6,0,0,0-1.49-7.57,18.16,18.16,0,0,0-4.73-6.77,25,25,0,0,0-8.52-4.87,37.45,37.45,0,0,0-12.59-1.89Zm7.85-31.66h26.51q16.25,0,24.22-7t8-16.78a16.25,16.25,0,0,0-2.29-8.79,17.24,17.24,0,0,0-6.09-5.82,28.22,28.22,0,0,0-8.66-3.11,52.51,52.51,0,0,0-10-.95q-5.68,0-12.18.41c-4.33.27-7.57.58-9.74.94Z"/><path class="cls-1" d="M1374,285.27h-40L1367.73,143H1408Zm19.48-159.64a24.83,24.83,0,0,1-15.15-5q-6.77-5-6.77-15.29a25.36,25.36,0,0,1,2.3-10.69A28.34,28.34,0,0,1,1379.9,86a29.36,29.36,0,0,1,8.8-5.81A26.66,26.66,0,0,1,1399.38,78a24.89,24.89,0,0,1,15.16,5q6.75,5,6.76,15.29A25.31,25.31,0,0,1,1419,109a28.1,28.1,0,0,1-6.09,8.66,29.28,29.28,0,0,1-8.79,5.82A26.7,26.7,0,0,1,1393.43,125.63Z"/><path class="cls-1" d="M1443.76,107.5l41.93-6.49L1475.41,143h44.92l-8.12,33h-44.65l-11.9,49.78a66.16,66.16,0,0,0-2,11.64,19.11,19.11,0,0,0,1.35,9.33,12.43,12.43,0,0,0,6.09,6.09Q1465.39,255,1473,255a64.2,64.2,0,0,0,12.58-1.22,93.15,93.15,0,0,0,12.31-3.38l3,30.84a144,144,0,0,1-17.59,5.14,102.11,102.11,0,0,1-22.46,2.17q-18.67,0-29-5.55a32,32,0,0,1-14.61-15.15,47.91,47.91,0,0,1-3.79-22,141.17,141.17,0,0,1,3.79-26.25Z"/><path class="cls-1" d="M1516.26,228.45a99.77,99.77,0,0,1,6-34.63,84.92,84.92,0,0,1,17-28.41,79.74,79.74,0,0,1,26.92-19.21,86.06,86.06,0,0,1,35.31-7,94,94,0,0,1,21.78,2.3,87.12,87.12,0,0,1,17.46,6.09l-13.8,31.39c-3.61-1.45-7.35-2.75-11.23-3.93a49.77,49.77,0,0,0-14.21-1.76q-20.28,0-31.92,13.67t-11.64,37.2q0,13.8,6,22.32T1585.8,255a69.78,69.78,0,0,0,15.15-1.63,72.88,72.88,0,0,0,13-4.06l3,32.2a138.22,138.22,0,0,1-16.64,5.28,91.17,91.17,0,0,1-22,2.3q-16.79,0-28.42-4.87a53.94,53.94,0,0,1-19.21-13.12,49.48,49.48,0,0,1-10.95-19.35A79.14,79.14,0,0,1,1516.26,228.45Z"/><path class="cls-1" d="M1690.24,289.06q-14.34,0-24.89-4.33a46,46,0,0,1-17.45-12.18A52.45,52.45,0,0,1,1637.48,254a75.27,75.27,0,0,1-3.52-23.68,104.4,104.4,0,0,1,5.28-32.46,92.85,92.85,0,0,1,15.56-29.23A83.33,83.33,0,0,1,1680,147.41q14.88-8.25,34.09-8.25a65.75,65.75,0,0,1,24.76,4.33,46,46,0,0,1,17.59,12.18,52.52,52.52,0,0,1,10.41,18.53,75.32,75.32,0,0,1,3.52,23.68,106.89,106.89,0,0,1-5.14,32.46A94,94,0,0,1,1750,259.57a79.55,79.55,0,0,1-25,21.24Q1710,289.06,1690.24,289.06Zm20-115.81a25.21,25.21,0,0,0-15.7,5.15,43.85,43.85,0,0,0-11.36,13,64,64,0,0,0-6.9,17.18,73.92,73.92,0,0,0-2.3,17.73q0,13.8,4.33,21.24T1694,255a25.2,25.2,0,0,0,15.69-5.14,44.19,44.19,0,0,0,11.37-13,64.53,64.53,0,0,0,6.9-17.18,74.35,74.35,0,0,0,2.3-17.72q0-13.81-4.33-21.25T1710.27,173.25Z"/><path class="cls-1" d="M1815.78,285.27h-40L1809.56,143h40.32Zm19.49-159.64a24.84,24.84,0,0,1-15.16-5q-6.77-5-6.76-15.29a25.2,25.2,0,0,1,2.3-10.69,28.34,28.34,0,0,1,6.09-8.66,29.19,29.19,0,0,1,8.79-5.81A26.71,26.71,0,0,1,1841.22,78a24.84,24.84,0,0,1,15.15,5q6.77,5,6.76,15.29a25.46,25.46,0,0,1-2.29,10.68,28.44,28.44,0,0,1-6.09,8.66,29.2,29.2,0,0,1-8.8,5.82A26.69,26.69,0,0,1,1835.27,125.63Z"/><path class="cls-1" d="M1879.64,149.44q4.59-1.35,10.14-3.11t12.45-3.25c4.6-1,9.74-1.8,15.42-2.43a177,177,0,0,1,19.35-1q31.92,0,43.83,18.4t4.06,50.33l-18.4,76.84h-40.31L1944,210.05q1.63-7,2.57-13.66a33.27,33.27,0,0,0-.13-11.64,13.72,13.72,0,0,0-5-8.11q-3.92-3.12-12-3.12a81.42,81.42,0,0,0-16,1.63l-26.25,110.12H1846.9Z"/><path class="cls-1" d="M2095.42,184.4a1.31,1.31,0,0,0-.06-1.86c-28.61-27.34-56.72-55.8-79-88.59-6.33-9.77-20.19-31.8-14.75-43.1,2.86-4.9,9.37-5.57,14.83-5.66,18.53.81,40.25,7.59,66.25,19.37a94.09,94.09,0,0,1,10.2-11c-32.22-13.64-77.17-28.88-95.83-13.52-17.14,15.19,2.23,44.18,12.54,58.58,11.94,16.29,25.59,31.08,39.79,45.32s29,27.55,44.21,40.53A1.32,1.32,0,0,0,2095.42,184.4Z"/><path class="cls-1" d="M2184.48,233.65c-1,2.51-3.57,6.28-9.35,4.85.21.29-14.37-3.58-14.37-3.58l-10.59,23.23,26.56,6.62c4.94,1.24,9.78,2.54,14.54,3.76l-8.44,33.9,20.38,5.09,8.36-33.55c5.57,1.51,11,2.91,16.27,4.22l-8.34,33.39,20.41,5.09,8.44-33.84c34.8,6.58,61,3.92,72-27.55,8.87-25.34-.45-39.95-18.75-49.49,13.33-3.07,23.37-11.84,26.05-30,3.7-24.74-15.14-38.05-40.9-46.92l8.35-33.52-20.4-5.09-8.14,32.64c-5.36-1.34-10.87-2.6-16.35-3.85l8.2-32.85L2238,81.15l-8.36,33.51c-4.44-1-8.8-2-13-3.06l0-.1-28.14-7-5.43,21.79s15.14,3.47,14.82,3.69c8.27,2.06,9.76,7.53,9.51,11.87L2197.86,180a15.23,15.23,0,0,1,2.12.68l-2.15-.54Zm60.22-90.46c11.51,2.88,48.61,8.23,42.62,32.28-5.75,23.05-41.26,11.34-52.78,8.47Zm-15.29,61.31c13.83,3.45,58.19,10.29,51.6,36.71-6.31,25.34-49,11.64-62.81,8.21Z"/><path class="cls-1" d="M2291.09,387.94c-96.36,23.66-192.38-33.11-221-127.64A197.33,197.33,0,0,0,2081,290a188.2,188.2,0,0,0,219.5,102.9c16.19-4.35,26.72-8,41.07-16.25-4-1.67-5.5-2.36-9.61-4.34C2317.26,380.79,2307.73,383.83,2291.09,387.94Z"/><path class="cls-1" d="M2453.51,318.84c-6.49-8-10.47-13.64-17.32-21.13-3.05,6.24-6.53,12.71-10.45,19.12,5.08,6,7,8.57,11.7,14.9A166.61,166.61,0,0,1,2452.09,355c2.5,5.07,5,10.85,5.24,16.44a5,5,0,0,1-.39,2.41.2.2,0,0,0-.05.09s0,0,0,0-.06.06-.08.09a4,4,0,0,1-.43.28,5.68,5.68,0,0,1-1.16.5,22.21,22.21,0,0,1-7.13.9,83.66,83.66,0,0,1-19-2.88c-13.48-3.45-26.44-8.48-39.29-14q-5.48-2.4-10.88-4.92c22.43-16.49,39-43.84,49.4-66.6,36.07-78,18-172.12-45.45-231.73a202.41,202.41,0,0,0-93.1-50.08c-75.2-18.1-154.23,9.6-202.76,67.88a26.51,26.51,0,1,0,21,14.57,180.92,180.92,0,0,1,90.18-59.8c38-11.17,79.93-8.85,117,5.66a185.29,185.29,0,0,1,55.77,34.56c61.31,54.91,79,143.94,45.16,217.75a184.27,184.27,0,0,1-38.3,54.95,66.1,66.1,0,0,1-10,7.52c-14-6.9-27.68-14.34-41.21-22.14A25.69,25.69,0,1,0,2315,351c12.32,6.58,24.82,12.9,37.55,18.84,22.65,10.42,45.79,20.14,70.41,25.78,16.31,3.42,40.88,7.1,52.06-10.33C2487.73,364.33,2465.51,334.66,2453.51,318.84Z"/></g></g></svg>