<?xml version="1.0" encoding="UTF-8"?>
<svg id="Layer_1" xmlns="http://www.w3.org/2000/svg" version="1.1" viewBox="0 0 64 64">
  <!-- Generator: Adobe Illustrator 29.4.0, SVG Export Plug-In . SVG Version: 2.1.0 Build 152)  -->
  <defs>
    <style>
      .st0 {
        fill: #f7941f;
      }
    </style>
  </defs>
  <g id="Layer_2">
    <g id="Layer_1-2">
      <path class="st0" d="M13.77,30c.07-.07.07-.18,0-.24-3.76-3.58-7.44-7.31-10.35-11.61-.83-1.28-2.63-4.17-1.93-5.65.37-.64,1.23-.73,1.94-.74,2.43.11,5.27.99,8.69,2.54.41-.51.85-1,1.34-1.44-4.21-1.79-10.11-3.78-12.56-1.77-2.25,1.99.29,5.79,1.64,7.67,1.58,2.11,3.33,4.09,5.21,5.94,1.86,1.84,3.8,3.61,5.79,5.31.07.05.16.05.23-.01Z"/>
      <path class="st0" d="M25.44,36.46c-.16.51-.71.8-1.22.64,0,0,0,0,0,0,.03.04-1.88-.47-1.88-.47l-1.39,3.04,3.48.87c.65.16,1.28.33,1.91.49l-1.11,4.44,2.68.66,1.1-4.4c.73.2,1.44.38,2.13.55l-1.1,4.37,2.67.67,1.11-4.43c4.56.86,7.99.51,9.43-3.61,1.16-3.32-.06-5.24-2.46-6.49,1.75-.4,3.06-1.55,3.42-3.92.48-3.24-1.98-4.99-5.36-6.15l1.1-4.39-2.67-.67-1.07,4.28c-.7-.18-1.42-.34-2.14-.51l1.07-4.3-2.67-.67-1.11,4.4c-.58-.13-1.15-.26-1.71-.4v-.02l-3.68-.91-.71,2.85s1.98.46,1.94.48c1.08.26,1.28.98,1.25,1.55l-1.25,5c.09.02.18.05.26.09l-.28-.07-1.74,7.01ZM33.34,24.6c1.51.37,6.37,1.08,5.58,4.21-.75,3.02-5.41,1.49-6.92,1.11l1.33-5.32ZM31.33,32.64c1.81.45,7.64,1.35,6.76,4.81-.82,3.32-6.42,1.53-8.23,1.08l1.47-5.89Z"/>
      <path class="st0" d="M39.41,56.67c-12.63,3.1-25.2-4.33-28.95-16.72.37,1.33.85,2.63,1.43,3.89,5.03,10.89,17.17,16.58,28.76,13.48,2.12-.57,3.5-1.05,5.38-2.13-.53-.22-.72-.31-1.26-.57-1.93,1.12-3.17,1.52-5.36,2.05Z"/>
      <path class="st0" d="M60.69,47.62c-.85-1.05-1.37-1.79-2.27-2.77-.4.82-.86,1.67-1.37,2.51.66.79.91,1.12,1.53,1.95.72.96,1.36,1.98,1.92,3.05.33.67.66,1.42.68,2.15.01.11,0,.22-.05.32h0l-.06.04s-.1.05-.15.07c-.3.09-.62.13-.93.12-.84-.03-1.68-.16-2.49-.38-1.76-.48-3.48-1.09-5.15-1.84-.48-.21-.95-.42-1.42-.65,2.94-2.16,5.11-5.74,6.47-8.72,6.06-13.39.13-29.16-13.26-35.22-1.58-.72-3.23-1.28-4.92-1.67-9.85-2.37-20.21,1.26-26.57,8.9-1.91-.2-3.62,1.19-3.82,3.09s1.19,3.62,3.09,3.82,3.62-1.19,3.82-3.09c.07-.66-.05-1.32-.34-1.91,3.05-3.76,7.17-6.49,11.82-7.84,5.05-1.44,10.44-1.18,15.33.74,2.68,1.06,5.16,2.59,7.31,4.52,7.98,7.2,10.38,18.75,5.92,28.53-1.22,2.69-2.92,5.13-5.02,7.2-.41.37-.85.7-1.32.98-1.84-.9-3.63-1.88-5.4-2.9-.21-1.85-1.88-3.17-3.73-2.96-1.85.21-3.17,1.88-2.96,3.73s1.88,3.17,3.73,2.96c.51-.06,1-.24,1.44-.51,1.62.86,3.25,1.69,4.92,2.47,2.97,1.36,6,2.63,9.22,3.38,2.14.45,5.36.93,6.82-1.35,1.69-2.75-1.23-6.63-2.8-8.71Z"/>
    </g>
  </g>
</svg>